<mxfile host="app.diagrams.net" modified="2023-05-05T22:23:12.908Z" agent="Mozilla/5.0 (Windows NT 10.0; Win64; x64) AppleWebKit/537.36 (KHTML, like Gecko) Chrome/112.0.0.0 Safari/537.36" etag="196qPD-itAx5NbEjSW8A" version="21.2.9" type="github">
  <diagram name="Page-1" id="zit-ckniccPGJTo4P72A">
    <mxGraphModel dx="11940" dy="6570" grid="1" gridSize="10" guides="1" tooltips="1" connect="1" arrows="1" fold="1" page="1" pageScale="1" pageWidth="850" pageHeight="1100" math="0" shadow="0">
      <root>
        <mxCell id="0" />
        <mxCell id="1" parent="0" />
        <mxCell id="LVKkR7vcVI-ZxPXRzYf2-1" value="" style="group" connectable="0" vertex="1" parent="1">
          <mxGeometry x="-1670" y="-1790" width="4800" height="3910" as="geometry" />
        </mxCell>
        <mxCell id="LVKkR7vcVI-ZxPXRzYf2-2" value="" style="group;container=0;" connectable="0" vertex="1" parent="LVKkR7vcVI-ZxPXRzYf2-1">
          <mxGeometry width="4800" height="3910" as="geometry" />
        </mxCell>
        <mxCell id="LVKkR7vcVI-ZxPXRzYf2-3" value="Institute" style="shape=ellipse;margin=3;double=1;whiteSpace=wrap;html=1;align=center;perimeter=ellipsePerimeter;" vertex="1" parent="LVKkR7vcVI-ZxPXRzYf2-2">
          <mxGeometry x="3449.6453900709225" y="3396.0399334442595" width="145.89665653495445" height="82.97082228116714" as="geometry" />
        </mxCell>
        <mxCell id="LVKkR7vcVI-ZxPXRzYf2-4" value="Internal" style="whiteSpace=wrap;html=1;align=center;container=0;" vertex="1" parent="LVKkR7vcVI-ZxPXRzYf2-2">
          <mxGeometry x="192.9094224924014" y="2979.669499198949" width="145.89665653495445" height="82.97082228116714" as="geometry" />
        </mxCell>
        <mxCell id="LVKkR7vcVI-ZxPXRzYf2-5" value="Set" style="shape=rhombus;perimeter=rhombusPerimeter;whiteSpace=wrap;html=1;align=center;container=0;" vertex="1" parent="LVKkR7vcVI-ZxPXRzYf2-2">
          <mxGeometry x="3049.659827420902" y="2298.6536854599913" width="165.6759348034516" height="120.83715070512463" as="geometry" />
        </mxCell>
        <mxCell id="LVKkR7vcVI-ZxPXRzYf2-6" value="Currency" style="ellipse;whiteSpace=wrap;html=1;align=center;container=0;" vertex="1" parent="LVKkR7vcVI-ZxPXRzYf2-2">
          <mxGeometry x="2844.0917885264344" y="2106.140458151206" width="121.48481439820023" height="58.52754013025991" as="geometry" />
        </mxCell>
        <mxCell id="LVKkR7vcVI-ZxPXRzYf2-7" value="Opens" style="shape=rhombus;double=1;perimeter=rhombusPerimeter;whiteSpace=wrap;html=1;align=center;container=0;" vertex="1" parent="LVKkR7vcVI-ZxPXRzYf2-2">
          <mxGeometry x="2503.941057367829" y="1573.792261242077" width="145.7817772778403" height="87.79131019538985" as="geometry" />
        </mxCell>
        <mxCell id="LVKkR7vcVI-ZxPXRzYf2-8" value="d" style="ellipse;whiteSpace=wrap;html=1;aspect=fixed;container=0;" vertex="1" parent="LVKkR7vcVI-ZxPXRzYf2-1">
          <mxGeometry x="2705.061867266592" y="1124.6419608099525" width="34.54462286881871" height="34.54462286881871" as="geometry" />
        </mxCell>
        <mxCell id="LVKkR7vcVI-ZxPXRzYf2-9" value="&lt;u&gt;C_National_ID&lt;/u&gt;" style="ellipse;whiteSpace=wrap;html=1;align=center;container=0;" vertex="1" parent="LVKkR7vcVI-ZxPXRzYf2-1">
          <mxGeometry x="2328.4589426321713" y="1047.8245643889866" width="121.48481439820023" height="58.52754013025991" as="geometry" />
        </mxCell>
        <mxCell id="LVKkR7vcVI-ZxPXRzYf2-10" value="User" style="whiteSpace=wrap;html=1;align=center;container=0;" vertex="1" parent="LVKkR7vcVI-ZxPXRzYf2-1">
          <mxGeometry x="2662.5421822272215" y="945.4013691610318" width="121.48481439820023" height="58.52754013025991" as="geometry" />
        </mxCell>
        <mxCell id="LVKkR7vcVI-ZxPXRzYf2-11" style="edgeStyle=orthogonalEdgeStyle;rounded=0;orthogonalLoop=1;jettySize=auto;html=1;exitX=0.5;exitY=0;exitDx=0;exitDy=0;entryX=0.5;entryY=1;entryDx=0;entryDy=0;endArrow=none;endFill=0;shape=link;" edge="1" parent="LVKkR7vcVI-ZxPXRzYf2-1" source="LVKkR7vcVI-ZxPXRzYf2-8" target="LVKkR7vcVI-ZxPXRzYf2-10">
          <mxGeometry relative="1" as="geometry" />
        </mxCell>
        <mxCell id="LVKkR7vcVI-ZxPXRzYf2-12" value="" style="endArrow=none;html=1;rounded=0;entryX=0.5;entryY=1;entryDx=0;entryDy=0;exitX=0;exitY=0;exitDx=0;exitDy=0;" edge="1" parent="LVKkR7vcVI-ZxPXRzYf2-1" source="LVKkR7vcVI-ZxPXRzYf2-10" target="LVKkR7vcVI-ZxPXRzYf2-13">
          <mxGeometry width="50" height="50" relative="1" as="geometry">
            <mxPoint x="2522.834645669291" y="1194.1434147146363" as="sourcePoint" />
            <mxPoint x="2498.537682789651" y="1164.8796446495064" as="targetPoint" />
          </mxGeometry>
        </mxCell>
        <mxCell id="LVKkR7vcVI-ZxPXRzYf2-13" value="&lt;u&gt;User_ID&lt;/u&gt;" style="ellipse;whiteSpace=wrap;html=1;align=center;container=0;" vertex="1" parent="LVKkR7vcVI-ZxPXRzYf2-1">
          <mxGeometry x="2522.834645669291" y="784.4506338028169" width="121.48481439820023" height="58.52754013025991" as="geometry" />
        </mxCell>
        <mxCell id="LVKkR7vcVI-ZxPXRzYf2-14" value="Password" style="ellipse;whiteSpace=wrap;html=1;align=center;container=0;" vertex="1" parent="LVKkR7vcVI-ZxPXRzYf2-1">
          <mxGeometry x="2784.026996625422" y="784.4506338028169" width="121.48481439820023" height="58.52754013025991" as="geometry" />
        </mxCell>
        <mxCell id="LVKkR7vcVI-ZxPXRzYf2-15" value="Address" style="ellipse;whiteSpace=wrap;html=1;align=center;container=0;" vertex="1" parent="LVKkR7vcVI-ZxPXRzYf2-1">
          <mxGeometry x="2243.419572553431" y="1183.1695009402126" width="121.48481439820023" height="58.52754013025991" as="geometry" />
        </mxCell>
        <mxCell id="LVKkR7vcVI-ZxPXRzYf2-16" value="Client" style="whiteSpace=wrap;html=1;align=center;container=0;" vertex="1" parent="LVKkR7vcVI-ZxPXRzYf2-1">
          <mxGeometry x="2425.6467941507317" y="1267.302839877461" width="170.07874015748033" height="124.37102277680228" as="geometry" />
        </mxCell>
        <mxCell id="LVKkR7vcVI-ZxPXRzYf2-17" value="Full_Name" style="ellipse;whiteSpace=wrap;html=1;align=center;container=0;" vertex="1" parent="LVKkR7vcVI-ZxPXRzYf2-1">
          <mxGeometry x="2243.419572553431" y="1110.0100757773876" width="121.48481439820023" height="58.52754013025991" as="geometry" />
        </mxCell>
        <mxCell id="LVKkR7vcVI-ZxPXRzYf2-18" value="Email" style="ellipse;whiteSpace=wrap;html=1;align=center;container=0;" vertex="1" parent="LVKkR7vcVI-ZxPXRzYf2-1">
          <mxGeometry x="2109.786276715411" y="1325.830380007721" width="121.48481439820023" height="58.52754013025991" as="geometry" />
        </mxCell>
        <mxCell id="LVKkR7vcVI-ZxPXRzYf2-19" value="Phone_Number" style="ellipse;shape=doubleEllipse;margin=3;whiteSpace=wrap;html=1;align=center;container=0;" vertex="1" parent="LVKkR7vcVI-ZxPXRzYf2-1">
          <mxGeometry x="2146.2317210348706" y="1223.407184779766" width="121.48481439820023" height="58.52754013025991" as="geometry" />
        </mxCell>
        <mxCell id="LVKkR7vcVI-ZxPXRzYf2-20" value="Account" style="shape=ext;margin=3;double=0;whiteSpace=wrap;html=1;align=center;container=0;" vertex="1" parent="LVKkR7vcVI-ZxPXRzYf2-1">
          <mxGeometry x="2401.3498312710913" y="1852.57824118006" width="218.67266591676042" height="175.5826203907797" as="geometry" />
        </mxCell>
        <mxCell id="LVKkR7vcVI-ZxPXRzYf2-21" value="Current_Balance" style="ellipse;whiteSpace=wrap;html=1;align=center;container=0;" vertex="1" parent="LVKkR7vcVI-ZxPXRzYf2-1">
          <mxGeometry x="2753.655793025872" y="2159.8478268639246" width="121.48481439820023" height="58.52754013025991" as="geometry" />
        </mxCell>
        <mxCell id="LVKkR7vcVI-ZxPXRzYf2-22" value="Type" style="ellipse;whiteSpace=wrap;html=1;align=center;container=0;" vertex="1" parent="LVKkR7vcVI-ZxPXRzYf2-1">
          <mxGeometry x="2644.319460067492" y="1750.1550459521056" width="121.48481439820023" height="58.52754013025991" as="geometry" />
        </mxCell>
        <mxCell id="LVKkR7vcVI-ZxPXRzYf2-23" value="Opening_Date" style="ellipse;whiteSpace=wrap;html=1;align=center;container=0;" vertex="1" parent="LVKkR7vcVI-ZxPXRzYf2-1">
          <mxGeometry x="2170.5286839145115" y="1867.2101262126253" width="121.48481439820023" height="58.52754013025991" as="geometry" />
        </mxCell>
        <mxCell id="LVKkR7vcVI-ZxPXRzYf2-24" value="IBAN" style="ellipse;whiteSpace=wrap;html=1;align=center;container=0;" vertex="1" parent="LVKkR7vcVI-ZxPXRzYf2-1">
          <mxGeometry x="2784.026996625422" y="2013.528976538275" width="121.48481439820023" height="58.52754013025991" as="geometry" />
        </mxCell>
        <mxCell id="LVKkR7vcVI-ZxPXRzYf2-25" value="" style="endArrow=none;html=1;rounded=0;entryX=0.428;entryY=0.975;entryDx=0;entryDy=0;exitX=0.606;exitY=0.006;exitDx=0;exitDy=0;exitPerimeter=0;entryPerimeter=0;" edge="1" parent="LVKkR7vcVI-ZxPXRzYf2-1" source="LVKkR7vcVI-ZxPXRzYf2-16" target="LVKkR7vcVI-ZxPXRzYf2-9">
          <mxGeometry width="50" height="50" relative="1" as="geometry">
            <mxPoint x="2413.4983127109113" y="1318.5144374914387" as="sourcePoint" />
            <mxPoint x="2474.2407199100107" y="1245.3550123286136" as="targetPoint" />
          </mxGeometry>
        </mxCell>
        <mxCell id="LVKkR7vcVI-ZxPXRzYf2-26" value="" style="endArrow=none;html=1;rounded=0;entryX=0.908;entryY=0.883;entryDx=0;entryDy=0;exitX=0.194;exitY=0.007;exitDx=0;exitDy=0;entryPerimeter=0;exitPerimeter=0;" edge="1" parent="LVKkR7vcVI-ZxPXRzYf2-1" source="LVKkR7vcVI-ZxPXRzYf2-16" target="LVKkR7vcVI-ZxPXRzYf2-15">
          <mxGeometry width="50" height="50" relative="1" as="geometry">
            <mxPoint x="2352.7559055118104" y="1347.7782075565688" as="sourcePoint" />
            <mxPoint x="2413.4983127109113" y="1274.6187823937437" as="targetPoint" />
          </mxGeometry>
        </mxCell>
        <mxCell id="LVKkR7vcVI-ZxPXRzYf2-27" value="" style="endArrow=none;html=1;rounded=0;exitX=0.5;exitY=0;exitDx=0;exitDy=0;entryX=0;entryY=0.75;entryDx=0;entryDy=0;" edge="1" parent="LVKkR7vcVI-ZxPXRzYf2-1" source="LVKkR7vcVI-ZxPXRzYf2-18" target="LVKkR7vcVI-ZxPXRzYf2-16">
          <mxGeometry width="50" height="50" relative="1" as="geometry">
            <mxPoint x="2292.013498312711" y="1450.2014027845235" as="sourcePoint" />
            <mxPoint x="2352.7559055118104" y="1377.0419776216984" as="targetPoint" />
          </mxGeometry>
        </mxCell>
        <mxCell id="LVKkR7vcVI-ZxPXRzYf2-28" value="" style="endArrow=none;html=1;rounded=0;exitX=1;exitY=0.5;exitDx=0;exitDy=0;entryX=-0.013;entryY=0.089;entryDx=0;entryDy=0;entryPerimeter=0;" edge="1" parent="LVKkR7vcVI-ZxPXRzYf2-1" source="LVKkR7vcVI-ZxPXRzYf2-19" target="LVKkR7vcVI-ZxPXRzYf2-16">
          <mxGeometry width="50" height="50" relative="1" as="geometry">
            <mxPoint x="2292.013498312711" y="1450.2014027845235" as="sourcePoint" />
            <mxPoint x="2352.7559055118104" y="1377.0419776216984" as="targetPoint" />
          </mxGeometry>
        </mxCell>
        <mxCell id="LVKkR7vcVI-ZxPXRzYf2-29" value="" style="endArrow=none;html=1;rounded=0;entryX=1;entryY=1;entryDx=0;entryDy=0;exitX=0.5;exitY=0;exitDx=0;exitDy=0;" edge="1" parent="LVKkR7vcVI-ZxPXRzYf2-1" source="LVKkR7vcVI-ZxPXRzYf2-16" target="LVKkR7vcVI-ZxPXRzYf2-17">
          <mxGeometry width="50" height="50" relative="1" as="geometry">
            <mxPoint x="2377.0528683914513" y="1318.5144374914387" as="sourcePoint" />
            <mxPoint x="2437.795275590551" y="1245.3550123286136" as="targetPoint" />
          </mxGeometry>
        </mxCell>
        <mxCell id="LVKkR7vcVI-ZxPXRzYf2-30" value="" style="endArrow=none;html=1;rounded=0;entryX=0.973;entryY=0.735;entryDx=0;entryDy=0;entryPerimeter=0;exitX=0;exitY=0.25;exitDx=0;exitDy=0;" edge="1" parent="LVKkR7vcVI-ZxPXRzYf2-1" source="LVKkR7vcVI-ZxPXRzYf2-20" target="LVKkR7vcVI-ZxPXRzYf2-23">
          <mxGeometry width="50" height="50" relative="1" as="geometry">
            <mxPoint x="2401.3498312710913" y="1925.7376663428852" as="sourcePoint" />
            <mxPoint x="2462.0922384701917" y="1852.57824118006" as="targetPoint" />
          </mxGeometry>
        </mxCell>
        <mxCell id="LVKkR7vcVI-ZxPXRzYf2-31" value="" style="endArrow=none;html=1;rounded=0;entryX=0;entryY=0;entryDx=0;entryDy=0;exitX=1;exitY=0.914;exitDx=0;exitDy=0;exitPerimeter=0;" edge="1" parent="LVKkR7vcVI-ZxPXRzYf2-1" source="LVKkR7vcVI-ZxPXRzYf2-20" target="LVKkR7vcVI-ZxPXRzYf2-6">
          <mxGeometry width="50" height="50" relative="1" as="geometry">
            <mxPoint x="2401.3498312710913" y="1955.0014364080146" as="sourcePoint" />
            <mxPoint x="2462.0922384701917" y="1881.8420112451904" as="targetPoint" />
          </mxGeometry>
        </mxCell>
        <mxCell id="LVKkR7vcVI-ZxPXRzYf2-32" value="" style="endArrow=none;html=1;rounded=0;entryX=1.008;entryY=0.181;entryDx=0;entryDy=0;entryPerimeter=0;" edge="1" parent="LVKkR7vcVI-ZxPXRzYf2-1" source="LVKkR7vcVI-ZxPXRzYf2-22" target="LVKkR7vcVI-ZxPXRzYf2-20">
          <mxGeometry width="50" height="50" relative="1" as="geometry">
            <mxPoint x="2340.6074240719913" y="2057.42463163597" as="sourcePoint" />
            <mxPoint x="2401.3498312710913" y="1984.2652064731446" as="targetPoint" />
          </mxGeometry>
        </mxCell>
        <mxCell id="LVKkR7vcVI-ZxPXRzYf2-33" value="" style="endArrow=none;html=1;rounded=0;exitX=0.5;exitY=0;exitDx=0;exitDy=0;entryX=1;entryY=1;entryDx=0;entryDy=0;" edge="1" parent="LVKkR7vcVI-ZxPXRzYf2-1" source="LVKkR7vcVI-ZxPXRzYf2-21" target="LVKkR7vcVI-ZxPXRzYf2-20">
          <mxGeometry width="50" height="50" relative="1" as="geometry">
            <mxPoint x="2389.2013498312713" y="2057.42463163597" as="sourcePoint" />
            <mxPoint x="2449.943757030371" y="1984.2652064731446" as="targetPoint" />
          </mxGeometry>
        </mxCell>
        <mxCell id="LVKkR7vcVI-ZxPXRzYf2-34" value="" style="endArrow=none;html=1;rounded=0;exitX=1;exitY=0.75;exitDx=0;exitDy=0;entryX=0.29;entryY=0.062;entryDx=0;entryDy=0;entryPerimeter=0;" edge="1" parent="LVKkR7vcVI-ZxPXRzYf2-1" source="LVKkR7vcVI-ZxPXRzYf2-20" target="LVKkR7vcVI-ZxPXRzYf2-24">
          <mxGeometry width="50" height="50" relative="1" as="geometry">
            <mxPoint x="2729.358830146232" y="1896.4738962777549" as="sourcePoint" />
            <mxPoint x="2790.101237345332" y="1823.3144711149303" as="targetPoint" />
          </mxGeometry>
        </mxCell>
        <mxCell id="LVKkR7vcVI-ZxPXRzYf2-35" value="" style="fontSize=12;html=1;endArrow=ERoneToMany;rounded=0;exitX=0;exitY=1;exitDx=0;exitDy=0;entryX=0.432;entryY=-0.016;entryDx=0;entryDy=0;entryPerimeter=0;" edge="1" parent="LVKkR7vcVI-ZxPXRzYf2-1" source="LVKkR7vcVI-ZxPXRzYf2-7" target="LVKkR7vcVI-ZxPXRzYf2-20">
          <mxGeometry width="100" height="100" relative="1" as="geometry">
            <mxPoint x="2425.6467941507317" y="1867.2101262126253" as="sourcePoint" />
            <mxPoint x="2547.1316085489316" y="1720.8912758869753" as="targetPoint" />
          </mxGeometry>
        </mxCell>
        <mxCell id="LVKkR7vcVI-ZxPXRzYf2-36" value="" style="endArrow=none;html=1;rounded=0;entryX=1;entryY=0.5;entryDx=0;entryDy=0;exitX=0;exitY=0.5;exitDx=0;exitDy=0;" edge="1" parent="LVKkR7vcVI-ZxPXRzYf2-1" source="LVKkR7vcVI-ZxPXRzYf2-8" target="LVKkR7vcVI-ZxPXRzYf2-16">
          <mxGeometry width="50" height="50" relative="1" as="geometry">
            <mxPoint x="2577.5028121484816" y="1371.1892236086724" as="sourcePoint" />
            <mxPoint x="2522.834645669291" y="1267.302839877461" as="targetPoint" />
          </mxGeometry>
        </mxCell>
        <mxCell id="LVKkR7vcVI-ZxPXRzYf2-37" value="" style="endArrow=none;html=1;rounded=0;entryX=1;entryY=0.5;entryDx=0;entryDy=0;exitX=0;exitY=0.5;exitDx=0;exitDy=0;" edge="1" parent="LVKkR7vcVI-ZxPXRzYf2-1" source="LVKkR7vcVI-ZxPXRzYf2-220" target="LVKkR7vcVI-ZxPXRzYf2-8">
          <mxGeometry width="50" height="50" relative="1" as="geometry">
            <mxPoint x="2692.913385826772" y="1340.462265040286" as="sourcePoint" />
            <mxPoint x="2613.9482564679415" y="1347.7782075565688" as="targetPoint" />
          </mxGeometry>
        </mxCell>
        <mxCell id="LVKkR7vcVI-ZxPXRzYf2-38" value="Admin" style="whiteSpace=wrap;html=1;align=center;container=0;" vertex="1" parent="LVKkR7vcVI-ZxPXRzYf2-1">
          <mxGeometry x="3203.1496062992123" y="1446.5434315263822" width="121.48481439820023" height="58.52754013025991" as="geometry" />
        </mxCell>
        <mxCell id="LVKkR7vcVI-ZxPXRzYf2-39" value="" style="endArrow=none;html=1;rounded=0;entryX=0.5;entryY=1;entryDx=0;entryDy=0;exitX=0.5;exitY=0;exitDx=0;exitDy=0;" edge="1" parent="LVKkR7vcVI-ZxPXRzYf2-1" source="LVKkR7vcVI-ZxPXRzYf2-38" target="LVKkR7vcVI-ZxPXRzYf2-8">
          <mxGeometry width="50" height="50" relative="1" as="geometry">
            <mxPoint x="2595.725534308211" y="1398.9898051705459" as="sourcePoint" />
            <mxPoint x="2592.6884139482563" y="1369.7260351054158" as="targetPoint" />
          </mxGeometry>
        </mxCell>
        <mxCell id="LVKkR7vcVI-ZxPXRzYf2-40" value="Closes" style="shape=rhombus;double=1;perimeter=rhombusPerimeter;whiteSpace=wrap;html=1;align=center;container=0;" vertex="1" parent="LVKkR7vcVI-ZxPXRzYf2-1">
          <mxGeometry x="2304.1660292463444" y="1574.5724255613256" width="145.7817772778403" height="87.79131019538985" as="geometry" />
        </mxCell>
        <mxCell id="LVKkR7vcVI-ZxPXRzYf2-41" value="" style="fontSize=12;html=1;endArrow=ERmandOne;rounded=0;entryX=0.099;entryY=0.99;entryDx=0;entryDy=0;entryPerimeter=0;" edge="1" parent="LVKkR7vcVI-ZxPXRzYf2-1" source="LVKkR7vcVI-ZxPXRzYf2-40" target="LVKkR7vcVI-ZxPXRzYf2-16">
          <mxGeometry width="100" height="100" relative="1" as="geometry">
            <mxPoint x="2352.7559055118104" y="1559.9405405287607" as="sourcePoint" />
            <mxPoint x="2474.2407199100107" y="1413.6216902031108" as="targetPoint" />
          </mxGeometry>
        </mxCell>
        <mxCell id="LVKkR7vcVI-ZxPXRzYf2-42" value="" style="fontSize=12;html=1;endArrow=ERmandOne;rounded=0;startSize=8;endSize=8;entryX=0.5;entryY=1;entryDx=0;entryDy=0;exitX=0.5;exitY=0;exitDx=0;exitDy=0;" edge="1" parent="LVKkR7vcVI-ZxPXRzYf2-1" source="LVKkR7vcVI-ZxPXRzYf2-7" target="LVKkR7vcVI-ZxPXRzYf2-16">
          <mxGeometry width="100" height="100" relative="1" as="geometry">
            <mxPoint x="2449.943757030371" y="1603.8361956264557" as="sourcePoint" />
            <mxPoint x="2474.2407199100107" y="1384.3579201379807" as="targetPoint" />
          </mxGeometry>
        </mxCell>
        <mxCell id="LVKkR7vcVI-ZxPXRzYf2-43" value="" style="edgeStyle=entityRelationEdgeStyle;fontSize=12;html=1;endArrow=ERmandOne;rounded=0;startSize=8;endSize=8;curved=1;exitX=1;exitY=0.5;exitDx=0;exitDy=0;entryX=0;entryY=0.5;entryDx=0;entryDy=0;" edge="1" parent="LVKkR7vcVI-ZxPXRzYf2-1" source="LVKkR7vcVI-ZxPXRzYf2-44" target="LVKkR7vcVI-ZxPXRzYf2-16">
          <mxGeometry width="100" height="100" relative="1" as="geometry">
            <mxPoint x="2036.8953880764905" y="1351.4361788147098" as="sourcePoint" />
            <mxPoint x="2377.0528683914513" y="1340.462265040286" as="targetPoint" />
          </mxGeometry>
        </mxCell>
        <mxCell id="LVKkR7vcVI-ZxPXRzYf2-44" value="Apply" style="shape=rhombus;double=1;perimeter=rhombusPerimeter;whiteSpace=wrap;html=1;align=center;container=0;" vertex="1" parent="LVKkR7vcVI-ZxPXRzYf2-1">
          <mxGeometry x="1964.00449943757" y="1241.6970410704723" width="145.7817772778403" height="87.79131019538985" as="geometry" />
        </mxCell>
        <mxCell id="LVKkR7vcVI-ZxPXRzYf2-45" value="Expiry_Date" style="ellipse;whiteSpace=wrap;html=1;align=center;container=0;" vertex="1" parent="LVKkR7vcVI-ZxPXRzYf2-1">
          <mxGeometry x="1708.8863892013499" y="1391.6738626542635" width="121.48481439820023" height="65.84348264654238" as="geometry" />
        </mxCell>
        <mxCell id="LVKkR7vcVI-ZxPXRzYf2-46" value="&lt;u&gt;Credit_Card_Number&lt;/u&gt;" style="ellipse;whiteSpace=wrap;html=1;align=center;container=0;" vertex="1" parent="LVKkR7vcVI-ZxPXRzYf2-1">
          <mxGeometry x="1563.1046119235095" y="1033.1926793564216" width="145.7817772778403" height="73.15942516282487" as="geometry" />
        </mxCell>
        <mxCell id="LVKkR7vcVI-ZxPXRzYf2-47" value="Date_Issued" style="ellipse;whiteSpace=wrap;html=1;align=center;container=0;" vertex="1" parent="LVKkR7vcVI-ZxPXRzYf2-1">
          <mxGeometry x="1429.4713160854892" y="1183.1695009402126" width="121.48481439820023" height="58.52754013025991" as="geometry" />
        </mxCell>
        <mxCell id="LVKkR7vcVI-ZxPXRzYf2-48" value="Pin" style="ellipse;whiteSpace=wrap;html=1;align=center;container=0;" vertex="1" parent="LVKkR7vcVI-ZxPXRzYf2-1">
          <mxGeometry x="1429.4713160854892" y="1080.746305712258" width="121.48481439820023" height="58.52754013025991" as="geometry" />
        </mxCell>
        <mxCell id="LVKkR7vcVI-ZxPXRzYf2-49" value="" style="endArrow=none;html=1;rounded=0;entryX=0.5;entryY=1;entryDx=0;entryDy=0;exitX=0.358;exitY=-0.018;exitDx=0;exitDy=0;exitPerimeter=0;" edge="1" parent="LVKkR7vcVI-ZxPXRzYf2-1" source="LVKkR7vcVI-ZxPXRzYf2-61" target="LVKkR7vcVI-ZxPXRzYf2-46">
          <mxGeometry width="50" height="50" relative="1" as="geometry">
            <mxPoint x="1736.4634420697416" y="1314.9149937734273" as="sourcePoint" />
            <mxPoint x="1818.22272215973" y="1241.6970410704723" as="targetPoint" />
          </mxGeometry>
        </mxCell>
        <mxCell id="LVKkR7vcVI-ZxPXRzYf2-50" value="" style="endArrow=none;html=1;rounded=0;entryX=1;entryY=0.5;entryDx=0;entryDy=0;exitX=0;exitY=0.5;exitDx=0;exitDy=0;" edge="1" parent="LVKkR7vcVI-ZxPXRzYf2-1" source="LVKkR7vcVI-ZxPXRzYf2-61" target="LVKkR7vcVI-ZxPXRzYf2-47">
          <mxGeometry width="50" height="50" relative="1" as="geometry">
            <mxPoint x="1696.7379077615296" y="1344.1202362984272" as="sourcePoint" />
            <mxPoint x="1757.48031496063" y="1270.9608111356024" as="targetPoint" />
          </mxGeometry>
        </mxCell>
        <mxCell id="LVKkR7vcVI-ZxPXRzYf2-51" value="" style="endArrow=none;html=1;rounded=0;entryX=1;entryY=1;entryDx=0;entryDy=0;exitX=0;exitY=0;exitDx=0;exitDy=0;" edge="1" parent="LVKkR7vcVI-ZxPXRzYf2-1" source="LVKkR7vcVI-ZxPXRzYf2-61" target="LVKkR7vcVI-ZxPXRzYf2-48">
          <mxGeometry width="50" height="50" relative="1" as="geometry">
            <mxPoint x="1721.0348706411698" y="1314.8564662332974" as="sourcePoint" />
            <mxPoint x="1781.7772778402698" y="1241.6970410704723" as="targetPoint" />
          </mxGeometry>
        </mxCell>
        <mxCell id="LVKkR7vcVI-ZxPXRzYf2-52" value="Type" style="ellipse;whiteSpace=wrap;html=1;align=center;container=0;" vertex="1" parent="LVKkR7vcVI-ZxPXRzYf2-1">
          <mxGeometry x="1429.4713160854892" y="1267.302839877461" width="121.48481439820023" height="58.52754013025991" as="geometry" />
        </mxCell>
        <mxCell id="LVKkR7vcVI-ZxPXRzYf2-53" value="Current_Balance" style="ellipse;whiteSpace=wrap;html=1;align=center;container=0;" vertex="1" parent="LVKkR7vcVI-ZxPXRzYf2-1">
          <mxGeometry x="1526.6591676040496" y="1384.3579201379807" width="121.48481439820023" height="58.52754013025991" as="geometry" />
        </mxCell>
        <mxCell id="LVKkR7vcVI-ZxPXRzYf2-54" value="Limit" style="ellipse;whiteSpace=wrap;html=1;align=center;container=0;" vertex="1" parent="LVKkR7vcVI-ZxPXRzYf2-1">
          <mxGeometry x="1733.1833520809898" y="1022.2187655819979" width="121.48481439820023" height="58.52754013025991" as="geometry" />
        </mxCell>
        <mxCell id="LVKkR7vcVI-ZxPXRzYf2-55" value="" style="endArrow=none;html=1;rounded=0;entryX=0.222;entryY=0.104;entryDx=0;entryDy=0;entryPerimeter=0;exitX=0.429;exitY=1;exitDx=0;exitDy=0;exitPerimeter=0;" edge="1" parent="LVKkR7vcVI-ZxPXRzYf2-1" source="LVKkR7vcVI-ZxPXRzYf2-61" target="LVKkR7vcVI-ZxPXRzYf2-45">
          <mxGeometry width="50" height="50" relative="1" as="geometry">
            <mxPoint x="1757.48031496063" y="1373.3840063635573" as="sourcePoint" />
            <mxPoint x="1818.22272215973" y="1300.2245812007322" as="targetPoint" />
          </mxGeometry>
        </mxCell>
        <mxCell id="LVKkR7vcVI-ZxPXRzYf2-56" value="" style="endArrow=none;html=1;rounded=0;entryX=0.5;entryY=0;entryDx=0;entryDy=0;exitX=0.35;exitY=1.038;exitDx=0;exitDy=0;exitPerimeter=0;" edge="1" parent="LVKkR7vcVI-ZxPXRzYf2-1" source="LVKkR7vcVI-ZxPXRzYf2-61" target="LVKkR7vcVI-ZxPXRzYf2-53">
          <mxGeometry width="50" height="50" relative="1" as="geometry">
            <mxPoint x="1733.1833520809898" y="1373.3840063635573" as="sourcePoint" />
            <mxPoint x="1793.9257592800902" y="1300.2245812007322" as="targetPoint" />
          </mxGeometry>
        </mxCell>
        <mxCell id="LVKkR7vcVI-ZxPXRzYf2-57" value="" style="endArrow=none;html=1;rounded=0;entryX=0.306;entryY=0.967;entryDx=0;entryDy=0;entryPerimeter=0;exitX=0.5;exitY=0;exitDx=0;exitDy=0;" edge="1" parent="LVKkR7vcVI-ZxPXRzYf2-1" source="LVKkR7vcVI-ZxPXRzYf2-61" target="LVKkR7vcVI-ZxPXRzYf2-54">
          <mxGeometry width="50" height="50" relative="1" as="geometry">
            <mxPoint x="1757.48031496063" y="1314.8564662332974" as="sourcePoint" />
            <mxPoint x="1818.22272215973" y="1241.6970410704723" as="targetPoint" />
          </mxGeometry>
        </mxCell>
        <mxCell id="LVKkR7vcVI-ZxPXRzYf2-58" value="Monthly_Income" style="ellipse;whiteSpace=wrap;html=1;align=center;container=0;" vertex="1" parent="LVKkR7vcVI-ZxPXRzYf2-1">
          <mxGeometry x="1915.4105736782901" y="989.2970242587265" width="121.48481439820023" height="58.52754013025991" as="geometry" />
        </mxCell>
        <mxCell id="LVKkR7vcVI-ZxPXRzYf2-59" value="" style="endArrow=none;html=1;rounded=0;entryX=0;entryY=1;entryDx=0;entryDy=0;exitX=0.75;exitY=0;exitDx=0;exitDy=0;" edge="1" parent="LVKkR7vcVI-ZxPXRzYf2-1" source="LVKkR7vcVI-ZxPXRzYf2-61" target="LVKkR7vcVI-ZxPXRzYf2-58">
          <mxGeometry width="50" height="50" relative="1" as="geometry">
            <mxPoint x="1811.5410573678291" y="1314.8564662332974" as="sourcePoint" />
            <mxPoint x="1885.6467941507312" y="1225.601967534651" as="targetPoint" />
          </mxGeometry>
        </mxCell>
        <mxCell id="LVKkR7vcVI-ZxPXRzYf2-60" value="" style="edgeStyle=entityRelationEdgeStyle;fontSize=12;html=1;endArrow=ERzeroToMany;endFill=1;rounded=0;startSize=8;endSize=8;curved=1;exitX=0;exitY=0.5;exitDx=0;exitDy=0;entryX=1;entryY=0.5;entryDx=0;entryDy=0;" edge="1" parent="LVKkR7vcVI-ZxPXRzYf2-1" source="LVKkR7vcVI-ZxPXRzYf2-44" target="LVKkR7vcVI-ZxPXRzYf2-61">
          <mxGeometry width="100" height="100" relative="1" as="geometry">
            <mxPoint x="1891.1136107986501" y="1351.4361788147098" as="sourcePoint" />
            <mxPoint x="1854.66816647919" y="1325.830380007721" as="targetPoint" />
          </mxGeometry>
        </mxCell>
        <mxCell id="LVKkR7vcVI-ZxPXRzYf2-61" value="Credit Card" style="shape=ext;margin=3;double=0;whiteSpace=wrap;html=1;align=center;fontSize=16;container=0;" vertex="1" parent="LVKkR7vcVI-ZxPXRzYf2-1">
          <mxGeometry x="1684.5894263217099" y="1183.1695009402126" width="170.07874015748033" height="98.7652239698136" as="geometry" />
        </mxCell>
        <mxCell id="LVKkR7vcVI-ZxPXRzYf2-62" value="" style="endArrow=none;html=1;rounded=0;exitX=1;exitY=0.5;exitDx=0;exitDy=0;entryX=0;entryY=0.75;entryDx=0;entryDy=0;" edge="1" parent="LVKkR7vcVI-ZxPXRzYf2-1" source="LVKkR7vcVI-ZxPXRzYf2-52" target="LVKkR7vcVI-ZxPXRzYf2-61">
          <mxGeometry width="50" height="50" relative="1" as="geometry">
            <mxPoint x="1575.2530933633295" y="1373.3840063635573" as="sourcePoint" />
            <mxPoint x="1696.7379077615296" y="1373.3840063635573" as="targetPoint" />
          </mxGeometry>
        </mxCell>
        <mxCell id="LVKkR7vcVI-ZxPXRzYf2-63" value="Deactivate" style="shape=rhombus;double=1;perimeter=rhombusPerimeter;whiteSpace=wrap;html=1;align=center;fontSize=16;container=0;" vertex="1" parent="LVKkR7vcVI-ZxPXRzYf2-1">
          <mxGeometry x="1964.00449943757" y="1402.6477764286872" width="145.7817772778403" height="87.79131019538985" as="geometry" />
        </mxCell>
        <mxCell id="LVKkR7vcVI-ZxPXRzYf2-64" value="" style="edgeStyle=entityRelationEdgeStyle;fontSize=12;html=1;endArrow=ERmandOne;rounded=0;startSize=8;endSize=8;curved=1;exitX=1;exitY=0.5;exitDx=0;exitDy=0;entryX=0;entryY=0.75;entryDx=0;entryDy=0;" edge="1" parent="LVKkR7vcVI-ZxPXRzYf2-1" source="LVKkR7vcVI-ZxPXRzYf2-63" target="LVKkR7vcVI-ZxPXRzYf2-16">
          <mxGeometry width="100" height="100" relative="1" as="geometry">
            <mxPoint x="2085.4893138357706" y="1369.7260351054158" as="sourcePoint" />
            <mxPoint x="2206.9741282339705" y="1223.407184779766" as="targetPoint" />
          </mxGeometry>
        </mxCell>
        <mxCell id="LVKkR7vcVI-ZxPXRzYf2-65" value="" style="edgeStyle=entityRelationEdgeStyle;fontSize=12;html=1;endArrow=ERzeroToMany;endFill=1;rounded=0;startSize=8;endSize=8;curved=1;entryX=1;entryY=0.75;entryDx=0;entryDy=0;exitX=0;exitY=0.5;exitDx=0;exitDy=0;" edge="1" parent="LVKkR7vcVI-ZxPXRzYf2-1" source="LVKkR7vcVI-ZxPXRzYf2-63" target="LVKkR7vcVI-ZxPXRzYf2-61">
          <mxGeometry width="100" height="100" relative="1" as="geometry">
            <mxPoint x="2012.5984251968503" y="1516.0448854310657" as="sourcePoint" />
            <mxPoint x="2134.08323959505" y="1369.7260351054158" as="targetPoint" />
          </mxGeometry>
        </mxCell>
        <mxCell id="LVKkR7vcVI-ZxPXRzYf2-66" value="Accept" style="shape=rhombus;perimeter=rhombusPerimeter;whiteSpace=wrap;html=1;align=center;fontSize=16;container=0;" vertex="1" parent="LVKkR7vcVI-ZxPXRzYf2-1">
          <mxGeometry x="2121.9347581552306" y="974.6651392261617" width="145.7817772778403" height="87.79131019538985" as="geometry" />
        </mxCell>
        <mxCell id="LVKkR7vcVI-ZxPXRzYf2-67" value="" style="edgeStyle=entityRelationEdgeStyle;fontSize=12;html=1;endArrow=ERzeroToMany;endFill=1;rounded=0;startSize=8;endSize=8;curved=1;entryX=1;entryY=0.25;entryDx=0;entryDy=0;exitX=0;exitY=0.5;exitDx=0;exitDy=0;" edge="1" parent="LVKkR7vcVI-ZxPXRzYf2-1" source="LVKkR7vcVI-ZxPXRzYf2-66" target="LVKkR7vcVI-ZxPXRzYf2-61">
          <mxGeometry width="100" height="100" relative="1" as="geometry">
            <mxPoint x="2121.9347581552306" y="1106.3521045192465" as="sourcePoint" />
            <mxPoint x="2243.419572553431" y="960.0332541935967" as="targetPoint" />
          </mxGeometry>
        </mxCell>
        <mxCell id="LVKkR7vcVI-ZxPXRzYf2-68" value="" style="edgeStyle=orthogonalEdgeStyle;fontSize=12;html=1;endArrow=ERmandOne;rounded=0;exitX=1;exitY=0.5;exitDx=0;exitDy=0;curved=1;entryX=0.25;entryY=0;entryDx=0;entryDy=0;" edge="1" parent="LVKkR7vcVI-ZxPXRzYf2-1" source="LVKkR7vcVI-ZxPXRzYf2-66" target="LVKkR7vcVI-ZxPXRzYf2-220">
          <mxGeometry width="100" height="100" relative="1" as="geometry">
            <mxPoint x="2492.463442069741" y="945.4013691610318" as="sourcePoint" />
            <mxPoint x="2923.734533183352" y="1267.302839877461" as="targetPoint" />
          </mxGeometry>
        </mxCell>
        <mxCell id="LVKkR7vcVI-ZxPXRzYf2-69" style="edgeStyle=orthogonalEdgeStyle;rounded=0;orthogonalLoop=1;jettySize=auto;html=1;exitX=0.5;exitY=1;exitDx=0;exitDy=0;" edge="1" parent="LVKkR7vcVI-ZxPXRzYf2-1" source="LVKkR7vcVI-ZxPXRzYf2-61" target="LVKkR7vcVI-ZxPXRzYf2-61">
          <mxGeometry relative="1" as="geometry" />
        </mxCell>
        <mxCell id="LVKkR7vcVI-ZxPXRzYf2-70" value="Apply" style="shape=rhombus;perimeter=rhombusPerimeter;whiteSpace=wrap;html=1;align=center;fontSize=16;container=0;" vertex="1" parent="LVKkR7vcVI-ZxPXRzYf2-1">
          <mxGeometry x="2844.769403824522" y="1574.5724255613256" width="145.7817772778403" height="87.79131019538985" as="geometry" />
        </mxCell>
        <mxCell id="LVKkR7vcVI-ZxPXRzYf2-71" value="" style="edgeStyle=orthogonalEdgeStyle;fontSize=12;html=1;endArrow=ERzeroToMany;endFill=1;rounded=0;startSize=8;endSize=8;curved=1;exitX=0.5;exitY=1;exitDx=0;exitDy=0;entryX=0;entryY=0.5;entryDx=0;entryDy=0;" edge="1" parent="LVKkR7vcVI-ZxPXRzYf2-1" source="LVKkR7vcVI-ZxPXRzYf2-70" target="LVKkR7vcVI-ZxPXRzYf2-284">
          <mxGeometry width="100" height="100" relative="1" as="geometry">
            <mxPoint x="2899.437570303712" y="1779.4188160172353" as="sourcePoint" />
            <mxPoint x="4126.434195725535" y="2233.0072520267495" as="targetPoint" />
            <Array as="points">
              <mxPoint x="2917.660292463442" y="2159.8478268639246" />
              <mxPoint x="4126.434195725535" y="2159.8478268639246" />
              <mxPoint x="4126.434195725535" y="2174.4797118964893" />
            </Array>
          </mxGeometry>
        </mxCell>
        <mxCell id="LVKkR7vcVI-ZxPXRzYf2-72" value="" style="edgeStyle=entityRelationEdgeStyle;fontSize=12;html=1;endArrow=ERmandOne;rounded=0;startSize=8;endSize=8;curved=1;entryX=1.001;entryY=0.858;entryDx=0;entryDy=0;exitX=0.5;exitY=0;exitDx=0;exitDy=0;entryPerimeter=0;" edge="1" parent="LVKkR7vcVI-ZxPXRzYf2-1" source="LVKkR7vcVI-ZxPXRzYf2-70" target="LVKkR7vcVI-ZxPXRzYf2-16">
          <mxGeometry width="100" height="100" relative="1" as="geometry">
            <mxPoint x="2498.5376827896516" y="1691.6275058218455" as="sourcePoint" />
            <mxPoint x="2620.0224971878515" y="1545.3086554961958" as="targetPoint" />
          </mxGeometry>
        </mxCell>
        <mxCell id="LVKkR7vcVI-ZxPXRzYf2-73" value="Transaction_ID" style="ellipse;whiteSpace=wrap;html=1;align=center;fontStyle=4;container=0;" vertex="1" parent="LVKkR7vcVI-ZxPXRzYf2-1">
          <mxGeometry x="2085.4893138357706" y="2483.3149092788385" width="121.48481439820023" height="58.52754013025991" as="geometry" />
        </mxCell>
        <mxCell id="LVKkR7vcVI-ZxPXRzYf2-74" value="" style="endArrow=none;html=1;rounded=0;entryX=0.5;entryY=1;entryDx=0;entryDy=0;exitX=0.25;exitY=0;exitDx=0;exitDy=0;" edge="1" parent="LVKkR7vcVI-ZxPXRzYf2-1" source="LVKkR7vcVI-ZxPXRzYf2-77" target="LVKkR7vcVI-ZxPXRzYf2-73">
          <mxGeometry width="50" height="50" relative="1" as="geometry">
            <mxPoint x="2018.6726659167603" y="2591.4884353245916" as="sourcePoint" />
            <mxPoint x="2097.6377952755906" y="2511.013067645484" as="targetPoint" />
          </mxGeometry>
        </mxCell>
        <mxCell id="LVKkR7vcVI-ZxPXRzYf2-75" value="Amount&lt;br&gt;" style="ellipse;whiteSpace=wrap;html=1;align=center;container=0;" vertex="1" parent="LVKkR7vcVI-ZxPXRzYf2-1">
          <mxGeometry x="1812.14848143982" y="2423.221757450094" width="121.48481439820023" height="43.89565509769493" as="geometry" />
        </mxCell>
        <mxCell id="LVKkR7vcVI-ZxPXRzYf2-76" value="" style="endArrow=none;html=1;rounded=0;exitX=1;exitY=1;exitDx=0;exitDy=0;" edge="1" parent="LVKkR7vcVI-ZxPXRzYf2-1" source="LVKkR7vcVI-ZxPXRzYf2-75">
          <mxGeometry width="50" height="50" relative="1" as="geometry">
            <mxPoint x="1951.85601799775" y="2547.5927802268966" as="sourcePoint" />
            <mxPoint x="2042.9696287964007" y="2613.436262873439" as="targetPoint" />
          </mxGeometry>
        </mxCell>
        <mxCell id="LVKkR7vcVI-ZxPXRzYf2-77" value="&lt;font style=&quot;font-size: 14px;&quot;&gt;Transactions&lt;/font&gt;" style="shape=ext;margin=3;double=1;whiteSpace=wrap;html=1;align=center;fontSize=16;container=0;" vertex="1" parent="LVKkR7vcVI-ZxPXRzYf2-1">
          <mxGeometry x="2042.9696287964007" y="2598.804377840874" width="121.48481439820023" height="58.52754013025991" as="geometry" />
        </mxCell>
        <mxCell id="LVKkR7vcVI-ZxPXRzYf2-78" value="" style="fontSize=12;html=1;endArrow=ERmandOne;rounded=0;startSize=8;endSize=8;exitX=1;exitY=0;exitDx=0;exitDy=0;entryX=0.425;entryY=1.008;entryDx=0;entryDy=0;entryPerimeter=0;" edge="1" parent="LVKkR7vcVI-ZxPXRzYf2-1" source="LVKkR7vcVI-ZxPXRzYf2-79" target="LVKkR7vcVI-ZxPXRzYf2-20">
          <mxGeometry width="100" height="100" relative="1" as="geometry">
            <mxPoint x="2340.6074240719913" y="2350.0623322872693" as="sourcePoint" />
            <mxPoint x="2474.2407199100107" y="2028.16086157084" as="targetPoint" />
          </mxGeometry>
        </mxCell>
        <mxCell id="LVKkR7vcVI-ZxPXRzYf2-79" value="View" style="shape=rhombus;perimeter=rhombusPerimeter;whiteSpace=wrap;html=1;align=center;fontSize=16;container=0;" vertex="1" parent="LVKkR7vcVI-ZxPXRzYf2-1">
          <mxGeometry x="2462.0922384701917" y="2423.221757450094" width="145.7817772778403" height="87.79131019538985" as="geometry" />
        </mxCell>
        <mxCell id="LVKkR7vcVI-ZxPXRzYf2-80" value="Pay-off bill&amp;nbsp;" style="shape=rhombus;perimeter=rhombusPerimeter;whiteSpace=wrap;html=1;align=center;container=0;" vertex="1" parent="LVKkR7vcVI-ZxPXRzYf2-1">
          <mxGeometry x="1988.3014623172105" y="1559.9405405287607" width="145.7817772778403" height="87.79131019538985" as="geometry" />
        </mxCell>
        <mxCell id="LVKkR7vcVI-ZxPXRzYf2-81" value="" style="endArrow=none;html=1;rounded=0;startArrow=ERoneToMany;startFill=0;entryX=0;entryY=0.5;entryDx=0;entryDy=0;exitX=1;exitY=1;exitDx=0;exitDy=0;edgeStyle=orthogonalEdgeStyle;curved=1;" edge="1" parent="LVKkR7vcVI-ZxPXRzYf2-1" source="LVKkR7vcVI-ZxPXRzYf2-61" target="LVKkR7vcVI-ZxPXRzYf2-80">
          <mxGeometry width="50" height="50" relative="1" as="geometry">
            <mxPoint x="2000.4499437570303" y="1340.462265040286" as="sourcePoint" />
            <mxPoint x="1939.7075365579303" y="1413.6216902031108" as="targetPoint" />
          </mxGeometry>
        </mxCell>
        <mxCell id="LVKkR7vcVI-ZxPXRzYf2-82" value="partially/fully" style="ellipse;whiteSpace=wrap;html=1;align=center;fontSize=16;container=0;" vertex="1" parent="LVKkR7vcVI-ZxPXRzYf2-1">
          <mxGeometry x="2146.2317210348706" y="1516.0448854310657" width="121.48481439820023" height="58.52754013025991" as="geometry" />
        </mxCell>
        <mxCell id="LVKkR7vcVI-ZxPXRzYf2-83" value="" style="endArrow=none;html=1;rounded=0;fontSize=12;startSize=8;endSize=8;curved=1;entryX=0;entryY=0.5;entryDx=0;entryDy=0;exitX=1;exitY=0;exitDx=0;exitDy=0;" edge="1" parent="LVKkR7vcVI-ZxPXRzYf2-1" source="LVKkR7vcVI-ZxPXRzYf2-80" target="LVKkR7vcVI-ZxPXRzYf2-82">
          <mxGeometry relative="1" as="geometry">
            <mxPoint x="1769.62879640045" y="1794.0507010498002" as="sourcePoint" />
            <mxPoint x="1964.00449943757" y="1794.0507010498002" as="targetPoint" />
          </mxGeometry>
        </mxCell>
        <mxCell id="LVKkR7vcVI-ZxPXRzYf2-84" value="" style="edgeStyle=entityRelationEdgeStyle;fontSize=12;html=1;endArrow=ERmandOne;rounded=0;startSize=8;endSize=8;curved=1;entryX=0;entryY=0;entryDx=0;entryDy=0;exitX=1;exitY=1;exitDx=0;exitDy=0;" edge="1" parent="LVKkR7vcVI-ZxPXRzYf2-1" source="LVKkR7vcVI-ZxPXRzYf2-80" target="LVKkR7vcVI-ZxPXRzYf2-20">
          <mxGeometry width="100" height="100" relative="1" as="geometry">
            <mxPoint x="1806.07424071991" y="1867.2101262126253" as="sourcePoint" />
            <mxPoint x="1927.5590551181103" y="1720.8912758869753" as="targetPoint" />
          </mxGeometry>
        </mxCell>
        <mxCell id="LVKkR7vcVI-ZxPXRzYf2-85" value="" style="shape=link;html=1;rounded=0;width=6.521739130434785;exitX=0.5;exitY=1;exitDx=0;exitDy=0;" edge="1" parent="LVKkR7vcVI-ZxPXRzYf2-1" source="LVKkR7vcVI-ZxPXRzYf2-77">
          <mxGeometry relative="1" as="geometry">
            <mxPoint x="2103.408323959505" y="2650.0159754548517" as="sourcePoint" />
            <mxPoint x="2103.7120359955006" y="2686.5956880362637" as="targetPoint" />
            <Array as="points" />
          </mxGeometry>
        </mxCell>
        <mxCell id="LVKkR7vcVI-ZxPXRzYf2-86" value="d" style="ellipse;whiteSpace=wrap;html=1;aspect=fixed;container=0;" vertex="1" parent="LVKkR7vcVI-ZxPXRzYf2-1">
          <mxGeometry x="2073.3408323959507" y="2686.5956880362637" width="57.57437144803119" height="57.57437144803119" as="geometry" />
        </mxCell>
        <mxCell id="LVKkR7vcVI-ZxPXRzYf2-87" value="&lt;font style=&quot;font-size: 12px;&quot;&gt;Credit Card Payment&lt;/font&gt;" style="shape=ext;margin=3;double=1;whiteSpace=wrap;html=1;align=center;fontSize=16;container=0;" vertex="1" parent="LVKkR7vcVI-ZxPXRzYf2-1">
          <mxGeometry x="2182.6771653543306" y="2826.037552396608" width="121.48481439820023" height="58.52754013025991" as="geometry" />
        </mxCell>
        <mxCell id="LVKkR7vcVI-ZxPXRzYf2-88" value="" style="endArrow=none;html=1;rounded=0;fontSize=12;startSize=8;endSize=8;curved=1;entryX=0.25;entryY=0;entryDx=0;entryDy=0;exitX=1;exitY=1;exitDx=0;exitDy=0;" edge="1" parent="LVKkR7vcVI-ZxPXRzYf2-1" source="LVKkR7vcVI-ZxPXRzYf2-86" target="LVKkR7vcVI-ZxPXRzYf2-87">
          <mxGeometry relative="1" as="geometry">
            <mxPoint x="2115.8605174353206" y="2525.644952678049" as="sourcePoint" />
            <mxPoint x="2310.236220472441" y="2525.644952678049" as="targetPoint" />
          </mxGeometry>
        </mxCell>
        <mxCell id="LVKkR7vcVI-ZxPXRzYf2-89" value="Performs" style="shape=rhombus;double=1;perimeter=rhombusPerimeter;whiteSpace=wrap;html=1;align=center;fontSize=16;container=0;" vertex="1" parent="LVKkR7vcVI-ZxPXRzYf2-1">
          <mxGeometry x="1842.51968503937" y="1764.7869309846706" width="145.7817772778403" height="87.79131019538985" as="geometry" />
        </mxCell>
        <mxCell id="LVKkR7vcVI-ZxPXRzYf2-90" value="" style="edgeStyle=entityRelationEdgeStyle;fontSize=12;html=1;endArrow=ERmandOne;rounded=0;startSize=8;endSize=8;curved=1;entryX=0.75;entryY=1;entryDx=0;entryDy=0;exitX=0.5;exitY=0;exitDx=0;exitDy=0;" edge="1" parent="LVKkR7vcVI-ZxPXRzYf2-1" source="LVKkR7vcVI-ZxPXRzYf2-89" target="LVKkR7vcVI-ZxPXRzYf2-61">
          <mxGeometry width="100" height="100" relative="1" as="geometry">
            <mxPoint x="1684.5894263217099" y="2233.0072520267495" as="sourcePoint" />
            <mxPoint x="1806.07424071991" y="2086.6884017011" as="targetPoint" />
          </mxGeometry>
        </mxCell>
        <mxCell id="LVKkR7vcVI-ZxPXRzYf2-91" value="" style="edgeStyle=orthogonalEdgeStyle;fontSize=12;html=1;endArrow=ERzeroToMany;endFill=1;rounded=0;exitX=0.5;exitY=1;exitDx=0;exitDy=0;entryX=0.5;entryY=0;entryDx=0;entryDy=0;curved=1;" edge="1" parent="LVKkR7vcVI-ZxPXRzYf2-1" source="LVKkR7vcVI-ZxPXRzYf2-89" target="LVKkR7vcVI-ZxPXRzYf2-87">
          <mxGeometry width="100" height="100" relative="1" as="geometry">
            <mxPoint x="1915.4105736782901" y="2072.056516668535" as="sourcePoint" />
            <mxPoint x="2036.8953880764905" y="1925.7376663428852" as="targetPoint" />
          </mxGeometry>
        </mxCell>
        <mxCell id="LVKkR7vcVI-ZxPXRzYf2-92" value="&lt;font style=&quot;font-size: 13px;&quot;&gt;Loan payment&lt;/font&gt;" style="shape=ext;margin=3;double=1;whiteSpace=wrap;html=1;align=center;fontSize=16;container=0;" vertex="1" parent="LVKkR7vcVI-ZxPXRzYf2-1">
          <mxGeometry x="2911.5860517435317" y="2993.8652737201282" width="121.48481439820023" height="58.52754013025991" as="geometry" />
        </mxCell>
        <mxCell id="LVKkR7vcVI-ZxPXRzYf2-93" value="" style="endArrow=none;html=1;rounded=0;fontSize=12;startSize=8;endSize=8;curved=1;exitX=1;exitY=0.5;exitDx=0;exitDy=0;entryX=0;entryY=0.5;entryDx=0;entryDy=0;" edge="1" parent="LVKkR7vcVI-ZxPXRzYf2-1" source="LVKkR7vcVI-ZxPXRzYf2-86" target="LVKkR7vcVI-ZxPXRzYf2-92">
          <mxGeometry relative="1" as="geometry">
            <mxPoint x="2686.839145106862" y="2774.3869982316533" as="sourcePoint" />
            <mxPoint x="2881.214848143982" y="2774.3869982316533" as="targetPoint" />
          </mxGeometry>
        </mxCell>
        <mxCell id="LVKkR7vcVI-ZxPXRzYf2-94" value="Performs" style="shape=rhombus;double=1;perimeter=rhombusPerimeter;whiteSpace=wrap;html=1;align=center;fontSize=16;container=0;" vertex="1" parent="LVKkR7vcVI-ZxPXRzYf2-1">
          <mxGeometry x="3312.4859392575927" y="2759.7551131990886" width="145.7817772778403" height="87.79131019538985" as="geometry" />
        </mxCell>
        <mxCell id="LVKkR7vcVI-ZxPXRzYf2-95" value="" style="edgeStyle=entityRelationEdgeStyle;fontSize=12;html=1;endArrow=ERzeroToMany;endFill=1;rounded=0;startSize=8;endSize=8;curved=1;entryX=1;entryY=0.5;entryDx=0;entryDy=0;exitX=0;exitY=0.5;exitDx=0;exitDy=0;" edge="1" parent="LVKkR7vcVI-ZxPXRzYf2-1" source="LVKkR7vcVI-ZxPXRzYf2-94" target="LVKkR7vcVI-ZxPXRzYf2-92">
          <mxGeometry width="100" height="100" relative="1" as="geometry">
            <mxPoint x="2255.568053993251" y="2540.276837710614" as="sourcePoint" />
            <mxPoint x="2377.0528683914513" y="2393.957987384965" as="targetPoint" />
          </mxGeometry>
        </mxCell>
        <mxCell id="LVKkR7vcVI-ZxPXRzYf2-96" value="Bill Payment" style="shape=ext;margin=3;double=1;whiteSpace=wrap;html=1;align=center;container=0;" vertex="1" parent="LVKkR7vcVI-ZxPXRzYf2-1">
          <mxGeometry x="2449.943757030371" y="3008.497158752693" width="121.48481439820023" height="58.52754013025991" as="geometry" />
        </mxCell>
        <mxCell id="LVKkR7vcVI-ZxPXRzYf2-97" value="" style="shape=link;html=1;rounded=0;width=-5.454545454545455;exitX=0.5;exitY=1;exitDx=0;exitDy=0;entryX=0.5;entryY=0;entryDx=0;entryDy=0;" edge="1" parent="LVKkR7vcVI-ZxPXRzYf2-1" source="LVKkR7vcVI-ZxPXRzYf2-96" target="LVKkR7vcVI-ZxPXRzYf2-98">
          <mxGeometry relative="1" as="geometry">
            <mxPoint x="2443.3228346456694" y="2878.0685355724095" as="sourcePoint" />
            <mxPoint x="2443.626546681665" y="2914.6482481538214" as="targetPoint" />
            <Array as="points" />
          </mxGeometry>
        </mxCell>
        <mxCell id="LVKkR7vcVI-ZxPXRzYf2-98" value="d" style="ellipse;whiteSpace=wrap;html=1;aspect=fixed;container=0;" vertex="1" parent="LVKkR7vcVI-ZxPXRzYf2-1">
          <mxGeometry x="2498.5376827896516" y="3096.288468948083" width="34.54462286881871" height="34.54462286881871" as="geometry" />
        </mxCell>
        <mxCell id="LVKkR7vcVI-ZxPXRzYf2-99" value="" style="endArrow=none;html=1;rounded=0;fontSize=12;startSize=8;endSize=8;curved=1;exitX=1;exitY=0;exitDx=0;exitDy=0;entryX=0.5;entryY=0;entryDx=0;entryDy=0;" edge="1" parent="LVKkR7vcVI-ZxPXRzYf2-1" source="LVKkR7vcVI-ZxPXRzYf2-86" target="LVKkR7vcVI-ZxPXRzYf2-96">
          <mxGeometry relative="1" as="geometry">
            <mxPoint x="2164.454443194601" y="2650.0159754548517" as="sourcePoint" />
            <mxPoint x="2328.4589426321713" y="2759.7551131990886" as="targetPoint" />
            <Array as="points">
              <mxPoint x="2194.8256467941505" y="2655.8687294678775" />
              <mxPoint x="2328.4589426321713" y="2847.546423394478" />
            </Array>
          </mxGeometry>
        </mxCell>
        <mxCell id="LVKkR7vcVI-ZxPXRzYf2-100" style="rounded=0;orthogonalLoop=1;jettySize=auto;html=1;exitX=0;exitY=0;exitDx=0;exitDy=0;entryX=0.75;entryY=1;entryDx=0;entryDy=0;endArrow=ERmandOne;endFill=0;startArrow=none;startFill=0;" edge="1" parent="LVKkR7vcVI-ZxPXRzYf2-1" source="LVKkR7vcVI-ZxPXRzYf2-5" target="LVKkR7vcVI-ZxPXRzYf2-16">
          <mxGeometry relative="1" as="geometry" />
        </mxCell>
        <mxCell id="LVKkR7vcVI-ZxPXRzYf2-101" value="Internal" style="whiteSpace=wrap;html=1;align=center;container=0;" vertex="1" parent="LVKkR7vcVI-ZxPXRzYf2-1">
          <mxGeometry x="2352.7559055118104" y="3198.711664176038" width="121.48481439820023" height="58.52754013025991" as="geometry" />
        </mxCell>
        <mxCell id="LVKkR7vcVI-ZxPXRzYf2-102" value="Third-Party" style="whiteSpace=wrap;html=1;align=center;container=0;" vertex="1" parent="LVKkR7vcVI-ZxPXRzYf2-1">
          <mxGeometry x="2583.577052868392" y="3198.711664176038" width="121.48481439820023" height="58.52754013025991" as="geometry" />
        </mxCell>
        <mxCell id="LVKkR7vcVI-ZxPXRzYf2-103" value="" style="endArrow=none;html=1;rounded=0;exitX=0.5;exitY=0;exitDx=0;exitDy=0;entryX=0.067;entryY=0.697;entryDx=0;entryDy=0;entryPerimeter=0;" edge="1" parent="LVKkR7vcVI-ZxPXRzYf2-1" source="LVKkR7vcVI-ZxPXRzYf2-101" target="LVKkR7vcVI-ZxPXRzYf2-98">
          <mxGeometry width="50" height="50" relative="1" as="geometry">
            <mxPoint x="2340.6074240719913" y="3024.3873858980587" as="sourcePoint" />
            <mxPoint x="2425.6467941507317" y="2939.5224527091823" as="targetPoint" />
          </mxGeometry>
        </mxCell>
        <mxCell id="LVKkR7vcVI-ZxPXRzYf2-104" value="" style="endArrow=none;html=1;rounded=0;exitX=0.564;exitY=0.004;exitDx=0;exitDy=0;entryX=1;entryY=0.5;entryDx=0;entryDy=0;exitPerimeter=0;" edge="1" parent="LVKkR7vcVI-ZxPXRzYf2-1" source="LVKkR7vcVI-ZxPXRzYf2-102" target="LVKkR7vcVI-ZxPXRzYf2-98">
          <mxGeometry width="50" height="50" relative="1" as="geometry">
            <mxPoint x="2383.1271091113613" y="2993.8652737201282" as="sourcePoint" />
            <mxPoint x="2437.795275590551" y="2954.154337741747" as="targetPoint" />
          </mxGeometry>
        </mxCell>
        <mxCell id="LVKkR7vcVI-ZxPXRzYf2-105" value="" style="fontSize=12;html=1;endArrow=ERzeroToMany;endFill=1;rounded=0;entryX=0;entryY=0.5;entryDx=0;entryDy=0;exitX=1;exitY=1;exitDx=0;exitDy=0;" edge="1" parent="LVKkR7vcVI-ZxPXRzYf2-1" source="LVKkR7vcVI-ZxPXRzYf2-5" target="LVKkR7vcVI-ZxPXRzYf2-122">
          <mxGeometry width="100" height="100" relative="1" as="geometry">
            <mxPoint x="3269.291338582677" y="2482.455328638498" as="sourcePoint" />
            <mxPoint x="2547.1316085489316" y="2452.485527515224" as="targetPoint" />
          </mxGeometry>
        </mxCell>
        <mxCell id="LVKkR7vcVI-ZxPXRzYf2-106" value="Points" style="whiteSpace=wrap;html=1;align=center;container=0;" vertex="1" parent="LVKkR7vcVI-ZxPXRzYf2-1">
          <mxGeometry x="967.8290213723285" y="1658.7057644985741" width="121.48481439820023" height="58.52754013025991" as="geometry" />
        </mxCell>
        <mxCell id="LVKkR7vcVI-ZxPXRzYf2-107" value="" style="edgeStyle=orthogonalEdgeStyle;rounded=0;orthogonalLoop=1;jettySize=auto;html=1;endArrow=none;endFill=0;" edge="1" parent="LVKkR7vcVI-ZxPXRzYf2-1" source="LVKkR7vcVI-ZxPXRzYf2-108" target="LVKkR7vcVI-ZxPXRzYf2-20">
          <mxGeometry relative="1" as="geometry" />
        </mxCell>
        <mxCell id="LVKkR7vcVI-ZxPXRzYf2-108" value="&lt;u&gt;Account_no.&lt;/u&gt;" style="ellipse;whiteSpace=wrap;html=1;align=center;container=0;" vertex="1" parent="LVKkR7vcVI-ZxPXRzYf2-1">
          <mxGeometry x="2741.5073115860523" y="1911.1057813103203" width="121.48481439820023" height="58.52754013025991" as="geometry" />
        </mxCell>
        <mxCell id="LVKkR7vcVI-ZxPXRzYf2-109" value="&lt;u&gt;Payment_ID&lt;/u&gt;" style="ellipse;whiteSpace=wrap;html=1;align=center;container=0;" vertex="1" parent="LVKkR7vcVI-ZxPXRzYf2-1">
          <mxGeometry x="2206.9741282339705" y="2964.601503654998" width="121.48481439820023" height="58.52754013025991" as="geometry" />
        </mxCell>
        <mxCell id="LVKkR7vcVI-ZxPXRzYf2-110" value="" style="edgeStyle=orthogonalEdgeStyle;rounded=0;orthogonalLoop=1;jettySize=auto;html=1;endArrow=none;endFill=0;" edge="1" parent="LVKkR7vcVI-ZxPXRzYf2-1" source="LVKkR7vcVI-ZxPXRzYf2-87" target="LVKkR7vcVI-ZxPXRzYf2-109">
          <mxGeometry relative="1" as="geometry" />
        </mxCell>
        <mxCell id="LVKkR7vcVI-ZxPXRzYf2-111" value="&lt;u&gt;Amount&lt;/u&gt;" style="ellipse;whiteSpace=wrap;html=1;align=center;container=0;" vertex="1" parent="LVKkR7vcVI-ZxPXRzYf2-1">
          <mxGeometry x="797.7502812148481" y="1658.7057644985741" width="121.48481439820023" height="58.52754013025991" as="geometry" />
        </mxCell>
        <mxCell id="LVKkR7vcVI-ZxPXRzYf2-112" style="edgeStyle=orthogonalEdgeStyle;rounded=0;orthogonalLoop=1;jettySize=auto;html=1;exitX=0;exitY=0.5;exitDx=0;exitDy=0;entryX=1;entryY=0.5;entryDx=0;entryDy=0;endArrow=none;endFill=0;" edge="1" parent="LVKkR7vcVI-ZxPXRzYf2-1" source="LVKkR7vcVI-ZxPXRzYf2-106" target="LVKkR7vcVI-ZxPXRzYf2-111">
          <mxGeometry relative="1" as="geometry" />
        </mxCell>
        <mxCell id="LVKkR7vcVI-ZxPXRzYf2-113" value="Full_Name" style="ellipse;whiteSpace=wrap;html=1;align=center;container=0;" vertex="1" parent="LVKkR7vcVI-ZxPXRzYf2-1">
          <mxGeometry x="760.7338582677165" y="2174.4797118964893" width="121.48481439820023" height="58.52754013025991" as="geometry" />
        </mxCell>
        <mxCell id="LVKkR7vcVI-ZxPXRzYf2-114" value="Accept/Reject" style="shape=rhombus;perimeter=rhombusPerimeter;whiteSpace=wrap;html=1;align=center;fontSize=16;container=0;" vertex="1" parent="LVKkR7vcVI-ZxPXRzYf2-1">
          <mxGeometry x="3907.761529808774" y="1658.7057644985741" width="145.7817772778403" height="87.79131019538985" as="geometry" />
        </mxCell>
        <mxCell id="LVKkR7vcVI-ZxPXRzYf2-115" value="" style="edgeStyle=orthogonalEdgeStyle;rounded=0;orthogonalLoop=1;jettySize=auto;html=1;endArrow=none;endFill=0;" edge="1" parent="LVKkR7vcVI-ZxPXRzYf2-1" source="LVKkR7vcVI-ZxPXRzYf2-211" target="LVKkR7vcVI-ZxPXRzYf2-113">
          <mxGeometry relative="1" as="geometry" />
        </mxCell>
        <mxCell id="LVKkR7vcVI-ZxPXRzYf2-116" value="" style="edgeStyle=entityRelationEdgeStyle;fontSize=12;html=1;endArrow=ERmandOne;rounded=0;startSize=8;endSize=8;curved=1;entryX=0.5;entryY=1;entryDx=0;entryDy=0;exitX=0.5;exitY=0;exitDx=0;exitDy=0;" edge="1" parent="LVKkR7vcVI-ZxPXRzYf2-1" source="LVKkR7vcVI-ZxPXRzYf2-114" target="LVKkR7vcVI-ZxPXRzYf2-220">
          <mxGeometry width="100" height="100" relative="1" as="geometry">
            <mxPoint x="3373.228346456693" y="1731.8651896613992" as="sourcePoint" />
            <mxPoint x="3494.713160854893" y="1585.5463393357493" as="targetPoint" />
          </mxGeometry>
        </mxCell>
        <mxCell id="LVKkR7vcVI-ZxPXRzYf2-117" value="Notifications Hub" style="rounded=1;arcSize=10;whiteSpace=wrap;html=1;align=center;container=0;" vertex="1" parent="LVKkR7vcVI-ZxPXRzYf2-1">
          <mxGeometry x="3786.276715410573" y="2496.3811826129186" width="121.48481439820023" height="58.52754013025991" as="geometry" />
        </mxCell>
        <mxCell id="LVKkR7vcVI-ZxPXRzYf2-118" style="rounded=0;orthogonalLoop=1;jettySize=auto;html=1;exitX=1;exitY=0.5;exitDx=0;exitDy=0;endArrow=none;endFill=0;startArrow=ERzeroToOne;startFill=0;" edge="1" parent="LVKkR7vcVI-ZxPXRzYf2-1" source="LVKkR7vcVI-ZxPXRzYf2-16" target="LVKkR7vcVI-ZxPXRzYf2-239">
          <mxGeometry relative="1" as="geometry">
            <mxPoint x="1866.8166479190102" y="1571.6460485548125" as="targetPoint" />
          </mxGeometry>
        </mxCell>
        <mxCell id="LVKkR7vcVI-ZxPXRzYf2-119" value="" style="rounded=0;orthogonalLoop=1;jettySize=auto;html=1;entryX=0.5;entryY=0;entryDx=0;entryDy=0;endArrow=none;endFill=0;startArrow=ERmandOne;startFill=0;" edge="1" parent="LVKkR7vcVI-ZxPXRzYf2-1" source="LVKkR7vcVI-ZxPXRzYf2-38" target="LVKkR7vcVI-ZxPXRzYf2-241">
          <mxGeometry relative="1" as="geometry">
            <mxPoint x="3555.455568053993" y="1647.7318507241505" as="targetPoint" />
            <Array as="points">
              <mxPoint x="3318.5601799775027" y="1603.8361956264557" />
            </Array>
          </mxGeometry>
        </mxCell>
        <mxCell id="LVKkR7vcVI-ZxPXRzYf2-120" value="" style="edgeStyle=orthogonalEdgeStyle;rounded=0;orthogonalLoop=1;jettySize=auto;html=1;exitX=0.5;exitY=1;exitDx=0;exitDy=0;shape=link;" edge="1" parent="LVKkR7vcVI-ZxPXRzYf2-1" source="LVKkR7vcVI-ZxPXRzYf2-117" target="LVKkR7vcVI-ZxPXRzYf2-121">
          <mxGeometry relative="1" as="geometry">
            <mxPoint x="3847.0191226096736" y="2540.276837710614" as="sourcePoint" />
            <mxPoint x="3859.167604049494" y="2628.068147906004" as="targetPoint" />
            <Array as="points">
              <mxPoint x="3846.614173228346" y="2576.9928873239437" />
              <mxPoint x="3845.6692913385823" y="2576.9928873239437" />
            </Array>
          </mxGeometry>
        </mxCell>
        <mxCell id="LVKkR7vcVI-ZxPXRzYf2-121" value="d" style="ellipse;whiteSpace=wrap;html=1;aspect=fixed;container=0;" vertex="1" parent="LVKkR7vcVI-ZxPXRzYf2-1">
          <mxGeometry x="3829.2377952755905" y="2610.7913731460385" width="34.54462286881871" height="34.54462286881871" as="geometry" />
        </mxCell>
        <mxCell id="LVKkR7vcVI-ZxPXRzYf2-122" value="Reminders" style="shape=ext;margin=3;double=1;whiteSpace=wrap;html=1;align=center;container=0;" vertex="1" parent="LVKkR7vcVI-ZxPXRzYf2-1">
          <mxGeometry x="3771.6985376827897" y="2767.5100122663484" width="121.48481439820023" height="58.52754013025991" as="geometry" />
        </mxCell>
        <mxCell id="LVKkR7vcVI-ZxPXRzYf2-123" value="Time" style="ellipse;whiteSpace=wrap;html=1;align=center;container=0;" vertex="1" parent="LVKkR7vcVI-ZxPXRzYf2-1">
          <mxGeometry x="4053.543307086614" y="2613.4362628734384" width="121.48481439820023" height="58.52754013025991" as="geometry" />
        </mxCell>
        <mxCell id="LVKkR7vcVI-ZxPXRzYf2-124" value="Reason" style="ellipse;whiteSpace=wrap;html=1;align=center;container=0;" vertex="1" parent="LVKkR7vcVI-ZxPXRzYf2-1">
          <mxGeometry x="4017.097862767154" y="2481.749297580354" width="121.48481439820023" height="58.52754013025991" as="geometry" />
        </mxCell>
        <mxCell id="LVKkR7vcVI-ZxPXRzYf2-125" value="Title" style="ellipse;whiteSpace=wrap;html=1;align=center;fontStyle=4;container=0;" vertex="1" parent="LVKkR7vcVI-ZxPXRzYf2-1">
          <mxGeometry x="3877.3903262092244" y="2335.4304472547046" width="121.48481439820023" height="58.52754013025991" as="geometry" />
        </mxCell>
        <mxCell id="LVKkR7vcVI-ZxPXRzYf2-126" value="Name" style="ellipse;whiteSpace=wrap;html=1;align=center;container=0;" vertex="1" parent="LVKkR7vcVI-ZxPXRzYf2-1">
          <mxGeometry x="2626.096737907762" y="3315.7667444365584" width="121.48481439820023" height="58.52754013025991" as="geometry" />
        </mxCell>
        <mxCell id="LVKkR7vcVI-ZxPXRzYf2-127" value="" style="endArrow=none;html=1;rounded=0;entryX=0.75;entryY=1;entryDx=0;entryDy=0;exitX=0.387;exitY=0.064;exitDx=0;exitDy=0;exitPerimeter=0;" edge="1" parent="LVKkR7vcVI-ZxPXRzYf2-1" source="LVKkR7vcVI-ZxPXRzYf2-126" target="LVKkR7vcVI-ZxPXRzYf2-102">
          <mxGeometry width="50" height="50" relative="1" as="geometry">
            <mxPoint x="2771.878515185602" y="3260.165581312811" as="sourcePoint" />
            <mxPoint x="2656.4679415073115" y="3037.7609288178232" as="targetPoint" />
          </mxGeometry>
        </mxCell>
        <mxCell id="LVKkR7vcVI-ZxPXRzYf2-128" style="rounded=0;orthogonalLoop=1;jettySize=auto;html=1;exitX=1;exitY=1;exitDx=0;exitDy=0;entryX=0;entryY=0.5;entryDx=0;entryDy=0;endArrow=ERzeroToMany;endFill=0;" edge="1" parent="LVKkR7vcVI-ZxPXRzYf2-1" source="LVKkR7vcVI-ZxPXRzYf2-129" target="LVKkR7vcVI-ZxPXRzYf2-117">
          <mxGeometry relative="1" as="geometry" />
        </mxCell>
        <mxCell id="LVKkR7vcVI-ZxPXRzYf2-129" value="Receive" style="shape=rhombus;perimeter=rhombusPerimeter;whiteSpace=wrap;html=1;align=center;container=0;" vertex="1" parent="LVKkR7vcVI-ZxPXRzYf2-1">
          <mxGeometry x="3288.188976377953" y="2350.0623322872693" width="145.7817772778403" height="87.79131019538985" as="geometry" />
        </mxCell>
        <mxCell id="LVKkR7vcVI-ZxPXRzYf2-130" value="&lt;u&gt;Payment_ID&lt;/u&gt;" style="ellipse;whiteSpace=wrap;html=1;align=center;container=0;" vertex="1" parent="LVKkR7vcVI-ZxPXRzYf2-1">
          <mxGeometry x="2650.3937007874015" y="3081.656583915518" width="121.48481439820023" height="58.52754013025991" as="geometry" />
        </mxCell>
        <mxCell id="LVKkR7vcVI-ZxPXRzYf2-131" value="" style="rounded=0;orthogonalLoop=1;jettySize=auto;html=1;endArrow=none;endFill=0;exitX=1;exitY=0.5;exitDx=0;exitDy=0;entryX=0;entryY=0.5;entryDx=0;entryDy=0;" edge="1" parent="LVKkR7vcVI-ZxPXRzYf2-1" source="LVKkR7vcVI-ZxPXRzYf2-96" target="LVKkR7vcVI-ZxPXRzYf2-130">
          <mxGeometry relative="1" as="geometry">
            <mxPoint x="2620.0224971878515" y="2847.546423394478" as="sourcePoint" />
            <mxPoint x="2632.1709786276715" y="2944.1168646094075" as="targetPoint" />
          </mxGeometry>
        </mxCell>
        <mxCell id="LVKkR7vcVI-ZxPXRzYf2-132" value="New/Replacement" style="ellipse;whiteSpace=wrap;html=1;align=center;container=0;" vertex="1" parent="LVKkR7vcVI-ZxPXRzYf2-1">
          <mxGeometry x="2049.0438695163098" y="1164.8796446495064" width="121.48481439820023" height="58.52754013025991" as="geometry" />
        </mxCell>
        <mxCell id="LVKkR7vcVI-ZxPXRzYf2-133" value="Donation" style="shape=ext;margin=3;double=1;whiteSpace=wrap;html=1;align=center;" vertex="1" parent="LVKkR7vcVI-ZxPXRzYf2-1">
          <mxGeometry x="3130.2587176602924" y="3235.730333308427" width="121.48481439820023" height="58.52754013025991" as="geometry" />
        </mxCell>
        <mxCell id="LVKkR7vcVI-ZxPXRzYf2-134" style="edgeStyle=orthogonalEdgeStyle;rounded=0;orthogonalLoop=1;jettySize=auto;html=1;exitX=1;exitY=0.25;exitDx=0;exitDy=0;entryX=0;entryY=0.5;entryDx=0;entryDy=0;endArrow=none;endFill=0;" edge="1" parent="LVKkR7vcVI-ZxPXRzYf2-1" source="LVKkR7vcVI-ZxPXRzYf2-122" target="LVKkR7vcVI-ZxPXRzYf2-123">
          <mxGeometry relative="1" as="geometry" />
        </mxCell>
        <mxCell id="LVKkR7vcVI-ZxPXRzYf2-135" value="" style="endArrow=none;html=1;rounded=0;entryX=1;entryY=0.75;entryDx=0;entryDy=0;exitX=0;exitY=0.5;exitDx=0;exitDy=0;" edge="1" parent="LVKkR7vcVI-ZxPXRzYf2-1" source="LVKkR7vcVI-ZxPXRzYf2-173" target="LVKkR7vcVI-ZxPXRzYf2-133">
          <mxGeometry width="50" height="50" relative="1" as="geometry">
            <mxPoint x="3367.154105736783" y="3345.030514501688" as="sourcePoint" />
            <mxPoint x="3075.590551181102" y="3462.0855947622076" as="targetPoint" />
          </mxGeometry>
        </mxCell>
        <mxCell id="LVKkR7vcVI-ZxPXRzYf2-136" value="" style="endArrow=none;html=1;rounded=0;fontSize=12;startSize=8;endSize=8;entryX=0;entryY=0.75;entryDx=0;entryDy=0;" edge="1" parent="LVKkR7vcVI-ZxPXRzYf2-1" target="LVKkR7vcVI-ZxPXRzYf2-133">
          <mxGeometry relative="1" as="geometry">
            <mxPoint x="2134.08323959505" y="2715.859458101394" as="sourcePoint" />
            <mxPoint x="2728.1439820022497" y="2832.914538361914" as="targetPoint" />
          </mxGeometry>
        </mxCell>
        <mxCell id="LVKkR7vcVI-ZxPXRzYf2-137" value="Certificate" style="whiteSpace=wrap;html=1;align=center;shape=label;perimeter=rectanglePerimeter;container=0;" vertex="1" parent="LVKkR7vcVI-ZxPXRzYf2-1">
          <mxGeometry x="1271.541057367829" y="1911.1057813103203" width="121.48481439820023" height="87.79131019538985" as="geometry" />
        </mxCell>
        <mxCell id="LVKkR7vcVI-ZxPXRzYf2-138" style="edgeStyle=orthogonalEdgeStyle;rounded=0;orthogonalLoop=1;jettySize=auto;html=1;exitX=1;exitY=0.5;exitDx=0;exitDy=0;endArrow=none;endFill=0;" edge="1" parent="LVKkR7vcVI-ZxPXRzYf2-1" source="LVKkR7vcVI-ZxPXRzYf2-117" target="LVKkR7vcVI-ZxPXRzYf2-124">
          <mxGeometry relative="1" as="geometry" />
        </mxCell>
        <mxCell id="LVKkR7vcVI-ZxPXRzYf2-139" style="edgeStyle=orthogonalEdgeStyle;rounded=0;orthogonalLoop=1;jettySize=auto;html=1;exitX=0.5;exitY=0;exitDx=0;exitDy=0;entryX=0.5;entryY=1;entryDx=0;entryDy=0;endArrow=none;endFill=0;" edge="1" parent="LVKkR7vcVI-ZxPXRzYf2-1" source="LVKkR7vcVI-ZxPXRzYf2-117" target="LVKkR7vcVI-ZxPXRzYf2-125">
          <mxGeometry relative="1" as="geometry" />
        </mxCell>
        <mxCell id="LVKkR7vcVI-ZxPXRzYf2-140" style="rounded=0;orthogonalLoop=1;jettySize=auto;html=1;exitX=1;exitY=1;exitDx=0;exitDy=0;endArrow=none;endFill=0;startArrow=ERoneToMany;startFill=0;" edge="1" parent="LVKkR7vcVI-ZxPXRzYf2-1" source="LVKkR7vcVI-ZxPXRzYf2-16" target="LVKkR7vcVI-ZxPXRzYf2-129">
          <mxGeometry relative="1" as="geometry">
            <mxPoint x="3605.264341957255" y="2332.5040702481915" as="targetPoint" />
            <Array as="points">
              <mxPoint x="2929.1338582677163" y="1904.2158920187792" />
            </Array>
          </mxGeometry>
        </mxCell>
        <mxCell id="LVKkR7vcVI-ZxPXRzYf2-141" style="edgeStyle=orthogonalEdgeStyle;rounded=0;orthogonalLoop=1;jettySize=auto;html=1;exitX=1;exitY=0;exitDx=0;exitDy=0;endArrow=none;endFill=0;" edge="1" parent="LVKkR7vcVI-ZxPXRzYf2-1" source="LVKkR7vcVI-ZxPXRzYf2-44" target="LVKkR7vcVI-ZxPXRzYf2-132">
          <mxGeometry relative="1" as="geometry">
            <mxPoint x="2109.786276715411" y="1194.1434147146363" as="targetPoint" />
          </mxGeometry>
        </mxCell>
        <mxCell id="LVKkR7vcVI-ZxPXRzYf2-142" value="&lt;u&gt;Certificate_ID&lt;/u&gt;" style="whiteSpace=wrap;html=1;align=center;shape=ellipse;perimeter=ellipsePerimeter;container=0;" vertex="1" parent="LVKkR7vcVI-ZxPXRzYf2-1">
          <mxGeometry x="1089.3138357705286" y="1955.0014364080146" width="121.48481439820023" height="58.52754013025991" as="geometry" />
        </mxCell>
        <mxCell id="LVKkR7vcVI-ZxPXRzYf2-143" style="edgeStyle=orthogonalEdgeStyle;rounded=0;orthogonalLoop=1;jettySize=auto;html=1;exitX=0;exitY=0.75;exitDx=0;exitDy=0;endArrow=none;endFill=0;" edge="1" parent="LVKkR7vcVI-ZxPXRzYf2-1" source="LVKkR7vcVI-ZxPXRzYf2-137" target="LVKkR7vcVI-ZxPXRzYf2-142">
          <mxGeometry relative="1" as="geometry" />
        </mxCell>
        <mxCell id="LVKkR7vcVI-ZxPXRzYf2-144" value="" style="endArrow=none;html=1;rounded=0;fontSize=12;startSize=8;endSize=8;curved=1;entryX=0;entryY=1;entryDx=0;entryDy=0;exitX=0.5;exitY=0;exitDx=0;exitDy=0;" edge="1" parent="LVKkR7vcVI-ZxPXRzYf2-1" source="LVKkR7vcVI-ZxPXRzYf2-253" target="LVKkR7vcVI-ZxPXRzYf2-86">
          <mxGeometry relative="1" as="geometry">
            <mxPoint x="2674.6906636670415" y="1363.6684347019343" as="sourcePoint" />
            <mxPoint x="2978.402699662542" y="1179.5115296820713" as="targetPoint" />
          </mxGeometry>
        </mxCell>
        <mxCell id="LVKkR7vcVI-ZxPXRzYf2-145" value="Maturity Date" style="whiteSpace=wrap;html=1;align=center;shape=ellipse;perimeter=ellipsePerimeter;container=0;" vertex="1" parent="LVKkR7vcVI-ZxPXRzYf2-1">
          <mxGeometry x="1235.095613048369" y="2086.6884017011" width="121.48481439820023" height="58.52754013025991" as="geometry" />
        </mxCell>
        <mxCell id="LVKkR7vcVI-ZxPXRzYf2-146" style="edgeStyle=orthogonalEdgeStyle;rounded=0;orthogonalLoop=1;jettySize=auto;html=1;exitX=0.25;exitY=1;exitDx=0;exitDy=0;endArrow=none;endFill=0;" edge="1" parent="LVKkR7vcVI-ZxPXRzYf2-1" source="LVKkR7vcVI-ZxPXRzYf2-137" target="LVKkR7vcVI-ZxPXRzYf2-145">
          <mxGeometry relative="1" as="geometry" />
        </mxCell>
        <mxCell id="LVKkR7vcVI-ZxPXRzYf2-147" value="" style="fontSize=12;html=1;endArrow=ERzeroToMany;endFill=1;rounded=0;startSize=8;endSize=8;entryX=1;entryY=0.25;entryDx=0;entryDy=0;exitX=0.419;exitY=0.986;exitDx=0;exitDy=0;exitPerimeter=0;" edge="1" parent="LVKkR7vcVI-ZxPXRzYf2-1" source="LVKkR7vcVI-ZxPXRzYf2-79" target="LVKkR7vcVI-ZxPXRzYf2-77">
          <mxGeometry width="100" height="100" relative="1" as="geometry">
            <mxPoint x="2255.568053993251" y="2306.166677189575" as="sourcePoint" />
            <mxPoint x="2600.546174769997" y="2535.557119401542" as="targetPoint" />
          </mxGeometry>
        </mxCell>
        <mxCell id="LVKkR7vcVI-ZxPXRzYf2-148" value="Interest" style="whiteSpace=wrap;html=1;align=center;shape=ellipse;perimeter=ellipsePerimeter;container=0;" vertex="1" parent="LVKkR7vcVI-ZxPXRzYf2-1">
          <mxGeometry x="1380.8773903262093" y="2101.320286733665" width="121.48481439820023" height="58.52754013025991" as="geometry" />
        </mxCell>
        <mxCell id="LVKkR7vcVI-ZxPXRzYf2-149" style="edgeStyle=orthogonalEdgeStyle;rounded=0;orthogonalLoop=1;jettySize=auto;html=1;exitX=0.75;exitY=1;exitDx=0;exitDy=0;endArrow=none;endFill=0;" edge="1" parent="LVKkR7vcVI-ZxPXRzYf2-1" source="LVKkR7vcVI-ZxPXRzYf2-137" target="LVKkR7vcVI-ZxPXRzYf2-148">
          <mxGeometry relative="1" as="geometry" />
        </mxCell>
        <mxCell id="LVKkR7vcVI-ZxPXRzYf2-150" value="" style="rounded=0;orthogonalLoop=1;jettySize=auto;html=1;exitX=0;exitY=1;exitDx=0;exitDy=0;entryX=0.75;entryY=0;entryDx=0;entryDy=0;endArrow=none;endFill=0;startArrow=ERmandOne;startFill=0;" edge="1" parent="LVKkR7vcVI-ZxPXRzYf2-1" source="LVKkR7vcVI-ZxPXRzYf2-16" target="LVKkR7vcVI-ZxPXRzYf2-151">
          <mxGeometry relative="1" as="geometry">
            <mxPoint x="2425.6467941507317" y="1391.6738626542635" as="sourcePoint" />
            <mxPoint x="1350.506186726659" y="2174.4797118964893" as="targetPoint" />
            <Array as="points">
              <mxPoint x="2024.7469066366705" y="1867.2101262126253" />
            </Array>
          </mxGeometry>
        </mxCell>
        <mxCell id="LVKkR7vcVI-ZxPXRzYf2-151" value="Buy" style="shape=rhombus;perimeter=rhombusPerimeter;whiteSpace=wrap;html=1;align=center;container=0;" vertex="1" parent="LVKkR7vcVI-ZxPXRzYf2-1">
          <mxGeometry x="1599.5500562429695" y="1823.3144711149303" width="145.7817772778403" height="87.79131019538985" as="geometry" />
        </mxCell>
        <mxCell id="LVKkR7vcVI-ZxPXRzYf2-152" value="" style="rounded=0;orthogonalLoop=1;jettySize=auto;html=1;exitX=0;exitY=1;exitDx=0;exitDy=0;entryX=0.5;entryY=0;entryDx=0;entryDy=0;endArrow=none;endFill=0;startArrow=ERmandOne;startFill=0;" edge="1" parent="LVKkR7vcVI-ZxPXRzYf2-1" source="LVKkR7vcVI-ZxPXRzYf2-16" target="LVKkR7vcVI-ZxPXRzYf2-153">
          <mxGeometry relative="1" as="geometry">
            <mxPoint x="2425.6467941507317" y="1391.6738626542635" as="sourcePoint" />
            <mxPoint x="1320.1349831271093" y="2174.4797118964893" as="targetPoint" />
            <Array as="points">
              <mxPoint x="1757.48031496063" y="1676.9956207892803" />
            </Array>
          </mxGeometry>
        </mxCell>
        <mxCell id="LVKkR7vcVI-ZxPXRzYf2-153" value="Redeem" style="shape=rhombus;perimeter=rhombusPerimeter;whiteSpace=wrap;html=1;align=center;container=0;" vertex="1" parent="LVKkR7vcVI-ZxPXRzYf2-1">
          <mxGeometry x="1538.8076490438693" y="1720.8912758869753" width="145.7817772778403" height="87.79131019538985" as="geometry" />
        </mxCell>
        <mxCell id="LVKkR7vcVI-ZxPXRzYf2-154" style="rounded=0;orthogonalLoop=1;jettySize=auto;html=1;exitX=0;exitY=1;exitDx=0;exitDy=0;entryX=1;entryY=0.25;entryDx=0;entryDy=0;endArrow=ERzeroToMany;endFill=0;" edge="1" parent="LVKkR7vcVI-ZxPXRzYf2-1" source="LVKkR7vcVI-ZxPXRzYf2-151" target="LVKkR7vcVI-ZxPXRzYf2-137">
          <mxGeometry relative="1" as="geometry">
            <Array as="points" />
          </mxGeometry>
        </mxCell>
        <mxCell id="LVKkR7vcVI-ZxPXRzYf2-155" value="Partially/Fully" style="shape=ellipse;perimeter=ellipsePerimeter;whiteSpace=wrap;html=1;align=center;container=0;" vertex="1" parent="LVKkR7vcVI-ZxPXRzYf2-1">
          <mxGeometry x="1405.1743532058495" y="1647.7318507241505" width="145.7817772778403" height="87.79131019538985" as="geometry" />
        </mxCell>
        <mxCell id="LVKkR7vcVI-ZxPXRzYf2-156" value="Duration" style="whiteSpace=wrap;html=1;align=center;shape=ellipse;perimeter=ellipsePerimeter;container=0;" vertex="1" parent="LVKkR7vcVI-ZxPXRzYf2-1">
          <mxGeometry x="1453.7682789651294" y="2028.16086157084" width="121.48481439820023" height="58.52754013025991" as="geometry" />
        </mxCell>
        <mxCell id="LVKkR7vcVI-ZxPXRzYf2-157" value="Currency" style="shape=ellipse;margin=3;double=1;whiteSpace=wrap;html=1;align=center;fontSize=12;perimeter=ellipsePerimeter;container=0;" vertex="1" parent="LVKkR7vcVI-ZxPXRzYf2-1">
          <mxGeometry x="1332.283464566929" y="2964.601503654998" width="121.48481439820023" height="58.52754013025991" as="geometry" />
        </mxCell>
        <mxCell id="LVKkR7vcVI-ZxPXRzYf2-158" style="rounded=0;orthogonalLoop=1;jettySize=auto;html=1;exitX=0.25;exitY=1;exitDx=0;exitDy=0;endArrow=none;endFill=0;targetPerimeterSpacing=0;jumpStyle=none;" edge="1" parent="LVKkR7vcVI-ZxPXRzYf2-1" source="LVKkR7vcVI-ZxPXRzYf2-253" target="LVKkR7vcVI-ZxPXRzYf2-157">
          <mxGeometry relative="1" as="geometry" />
        </mxCell>
        <mxCell id="LVKkR7vcVI-ZxPXRzYf2-159" value="" style="rounded=0;orthogonalLoop=1;jettySize=auto;html=1;endArrow=none;endFill=0;exitX=0.25;exitY=0;exitDx=0;exitDy=0;entryX=0;entryY=0.5;entryDx=0;entryDy=0;" edge="1" parent="LVKkR7vcVI-ZxPXRzYf2-1" source="LVKkR7vcVI-ZxPXRzYf2-92" target="LVKkR7vcVI-ZxPXRzYf2-160">
          <mxGeometry relative="1" as="geometry">
            <mxPoint x="2984.4769403824525" y="3052.392813850388" as="sourcePoint" />
            <mxPoint x="3039.145106861642" y="3134.331370032752" as="targetPoint" />
          </mxGeometry>
        </mxCell>
        <mxCell id="LVKkR7vcVI-ZxPXRzYf2-160" value="&lt;u&gt;Payment_ID&lt;/u&gt;" style="ellipse;whiteSpace=wrap;html=1;align=center;container=0;" vertex="1" parent="LVKkR7vcVI-ZxPXRzYf2-1">
          <mxGeometry x="3020.9223847019125" y="2857.686319722046" width="121.48481439820023" height="58.52754013025991" as="geometry" />
        </mxCell>
        <mxCell id="LVKkR7vcVI-ZxPXRzYf2-161" value="&lt;font style=&quot;font-size: 13px;&quot;&gt;InterestOverDue&lt;/font&gt;" style="shape=ellipse;margin=3;double=1;whiteSpace=wrap;html=1;align=center;fontSize=12;perimeter=ellipsePerimeter;container=0;" vertex="1" parent="LVKkR7vcVI-ZxPXRzYf2-1">
          <mxGeometry x="3130.2587176602924" y="3008.497158752693" width="139.70753655793027" height="73.15942516282487" as="geometry" />
        </mxCell>
        <mxCell id="LVKkR7vcVI-ZxPXRzYf2-162" value="&lt;font style=&quot;font-size: 13px;&quot;&gt;InterestOverDue&lt;/font&gt;" style="shape=ellipse;margin=3;double=1;whiteSpace=wrap;html=1;align=center;fontSize=12;perimeter=ellipsePerimeter;container=0;" vertex="1" parent="LVKkR7vcVI-ZxPXRzYf2-1">
          <mxGeometry x="1985.264341957255" y="2813.7906646243514" width="127.55905511811024" height="77.65141386782233" as="geometry" />
        </mxCell>
        <mxCell id="LVKkR7vcVI-ZxPXRzYf2-163" value="Performs" style="shape=rhombus;double=1;perimeter=rhombusPerimeter;whiteSpace=wrap;html=1;align=center;fontSize=16;" vertex="1" parent="LVKkR7vcVI-ZxPXRzYf2-1">
          <mxGeometry x="3324.6344206974127" y="3067.0246988829535" width="145.7817772778403" height="87.79131019538985" as="geometry" />
        </mxCell>
        <mxCell id="LVKkR7vcVI-ZxPXRzYf2-164" value="Type" style="shape=ellipse;margin=3;double=1;whiteSpace=wrap;html=1;align=center;perimeter=ellipsePerimeter;container=0;" vertex="1" parent="LVKkR7vcVI-ZxPXRzYf2-1">
          <mxGeometry x="2231.272440944882" y="3072.3022810425778" width="121.48481439820023" height="58.52754013025991" as="geometry" />
        </mxCell>
        <mxCell id="LVKkR7vcVI-ZxPXRzYf2-165" value="Type" style="ellipse;whiteSpace=wrap;html=1;align=center;container=0;" vertex="1" parent="LVKkR7vcVI-ZxPXRzYf2-1">
          <mxGeometry x="2389.2013498312713" y="2233.0072520267495" width="121.48481439820023" height="58.52754013025991" as="geometry" />
        </mxCell>
        <mxCell id="LVKkR7vcVI-ZxPXRzYf2-166" value="TimeFrame" style="ellipse;whiteSpace=wrap;html=1;align=center;container=0;" vertex="1" parent="LVKkR7vcVI-ZxPXRzYf2-1">
          <mxGeometry x="2267.716535433071" y="2291.5347921570096" width="121.48481439820023" height="58.52754013025991" as="geometry" />
        </mxCell>
        <mxCell id="LVKkR7vcVI-ZxPXRzYf2-167" value="View" style="shape=rhombus;perimeter=rhombusPerimeter;whiteSpace=wrap;html=1;align=center;container=0;" vertex="1" parent="LVKkR7vcVI-ZxPXRzYf2-1">
          <mxGeometry x="943.5320584926885" y="1417.2796614612523" width="145.7817772778403" height="87.79131019538985" as="geometry" />
        </mxCell>
        <mxCell id="LVKkR7vcVI-ZxPXRzYf2-168" value="" style="edgeStyle=entityRelationEdgeStyle;fontSize=12;html=1;endArrow=ERmandOne;rounded=0;exitX=0.5;exitY=0;exitDx=0;exitDy=0;entryX=0;entryY=0.25;entryDx=0;entryDy=0;" edge="1" parent="LVKkR7vcVI-ZxPXRzYf2-1" source="LVKkR7vcVI-ZxPXRzYf2-167" target="LVKkR7vcVI-ZxPXRzYf2-16">
          <mxGeometry width="100" height="100" relative="1" as="geometry">
            <mxPoint x="1016.4229471316086" y="1647.7318507241505" as="sourcePoint" />
            <mxPoint x="1526.6591676040496" y="1501.4130003985008" as="targetPoint" />
          </mxGeometry>
        </mxCell>
        <mxCell id="LVKkR7vcVI-ZxPXRzYf2-169" value="" style="fontSize=12;html=1;endArrow=ERmandOne;rounded=0;entryX=0.5;entryY=0;entryDx=0;entryDy=0;exitX=0.5;exitY=1;exitDx=0;exitDy=0;" edge="1" parent="LVKkR7vcVI-ZxPXRzYf2-1" source="LVKkR7vcVI-ZxPXRzYf2-167" target="LVKkR7vcVI-ZxPXRzYf2-106">
          <mxGeometry width="100" height="100" relative="1" as="geometry">
            <mxPoint x="1040.7199100112487" y="1808.6825860823653" as="sourcePoint" />
            <mxPoint x="919.2350956130483" y="1940.36955137545" as="targetPoint" />
          </mxGeometry>
        </mxCell>
        <mxCell id="LVKkR7vcVI-ZxPXRzYf2-170" value="ExpiryDate" style="ellipse;whiteSpace=wrap;html=1;align=center;container=0;" vertex="1" parent="LVKkR7vcVI-ZxPXRzYf2-1">
          <mxGeometry x="1150.0562429696288" y="1658.7057644985741" width="121.48481439820023" height="58.52754013025991" as="geometry" />
        </mxCell>
        <mxCell id="LVKkR7vcVI-ZxPXRzYf2-171" style="edgeStyle=orthogonalEdgeStyle;rounded=0;orthogonalLoop=1;jettySize=auto;html=1;exitX=0;exitY=0.5;exitDx=0;exitDy=0;entryX=1;entryY=0.5;entryDx=0;entryDy=0;endArrow=none;endFill=0;" edge="1" parent="LVKkR7vcVI-ZxPXRzYf2-1" source="LVKkR7vcVI-ZxPXRzYf2-170">
          <mxGeometry relative="1" as="geometry">
            <mxPoint x="1137.9077615298086" y="1686.8428794161964" as="sourcePoint" />
            <mxPoint x="1089.3138357705286" y="1686.8428794161964" as="targetPoint" />
            <Array as="points">
              <mxPoint x="1114.8256467941508" y="1688.7011288153324" />
            </Array>
          </mxGeometry>
        </mxCell>
        <mxCell id="LVKkR7vcVI-ZxPXRzYf2-172" value="" style="endArrow=none;html=1;rounded=0;entryX=1;entryY=0.25;entryDx=0;entryDy=0;exitX=0;exitY=0.5;exitDx=0;exitDy=0;" edge="1" parent="LVKkR7vcVI-ZxPXRzYf2-1" target="LVKkR7vcVI-ZxPXRzYf2-173">
          <mxGeometry width="50" height="50" relative="1" as="geometry">
            <mxPoint x="3367.154105736783" y="3345.030514501688" as="sourcePoint" />
            <mxPoint x="3251.7435320584927" y="3249.923261790015" as="targetPoint" />
          </mxGeometry>
        </mxCell>
        <mxCell id="LVKkR7vcVI-ZxPXRzYf2-173" value="Type" style="ellipse;whiteSpace=wrap;html=1;align=center;container=0;" vertex="1" parent="LVKkR7vcVI-ZxPXRzYf2-1">
          <mxGeometry x="3288.188976377953" y="3301.1348594039932" width="121.48481439820023" height="58.52754013025991" as="geometry" />
        </mxCell>
        <mxCell id="LVKkR7vcVI-ZxPXRzYf2-174" value="Performs" style="shape=rhombus;perimeter=rhombusPerimeter;whiteSpace=wrap;html=1;align=center;container=0;" vertex="1" parent="LVKkR7vcVI-ZxPXRzYf2-1">
          <mxGeometry x="1247.244094488189" y="2247.6391370593146" width="145.7817772778403" height="87.79131019538985" as="geometry" />
        </mxCell>
        <mxCell id="LVKkR7vcVI-ZxPXRzYf2-175" value="" style="edgeStyle=entityRelationEdgeStyle;fontSize=12;html=1;endArrow=ERmandOne;rounded=0;entryX=0;entryY=0.75;entryDx=0;entryDy=0;exitX=1;exitY=0.5;exitDx=0;exitDy=0;" edge="1" parent="LVKkR7vcVI-ZxPXRzYf2-1" source="LVKkR7vcVI-ZxPXRzYf2-174" target="LVKkR7vcVI-ZxPXRzYf2-20">
          <mxGeometry width="100" height="100" relative="1" as="geometry">
            <mxPoint x="1332.283464566929" y="2350.0623322872693" as="sourcePoint" />
            <mxPoint x="1453.7682789651294" y="2203.743481961619" as="targetPoint" />
          </mxGeometry>
        </mxCell>
        <mxCell id="LVKkR7vcVI-ZxPXRzYf2-176" value="" style="edgeStyle=entityRelationEdgeStyle;fontSize=12;html=1;endArrow=ERoneToMany;rounded=0;exitX=0;exitY=0.5;exitDx=0;exitDy=0;entryX=1;entryY=0.5;entryDx=0;entryDy=0;" edge="1" parent="LVKkR7vcVI-ZxPXRzYf2-1" source="LVKkR7vcVI-ZxPXRzYf2-174" target="LVKkR7vcVI-ZxPXRzYf2-211">
          <mxGeometry width="100" height="100" relative="1" as="geometry">
            <mxPoint x="1101.4623172103486" y="2291.5347921570096" as="sourcePoint" />
            <mxPoint x="1222.9471316085487" y="2145.2159418313595" as="targetPoint" />
          </mxGeometry>
        </mxCell>
        <mxCell id="LVKkR7vcVI-ZxPXRzYf2-177" value="Performs" style="shape=rhombus;perimeter=rhombusPerimeter;whiteSpace=wrap;html=1;align=center;container=0;" vertex="1" parent="LVKkR7vcVI-ZxPXRzYf2-1">
          <mxGeometry x="1101.4623172103486" y="2379.3261023523996" width="145.7817772778403" height="87.79131019538985" as="geometry" />
        </mxCell>
        <mxCell id="LVKkR7vcVI-ZxPXRzYf2-178" value="" style="edgeStyle=entityRelationEdgeStyle;fontSize=12;html=1;endArrow=ERmandOne;rounded=0;entryX=0;entryY=1;entryDx=0;entryDy=0;exitX=1;exitY=0.5;exitDx=0;exitDy=0;" edge="1" parent="LVKkR7vcVI-ZxPXRzYf2-1" source="LVKkR7vcVI-ZxPXRzYf2-177" target="LVKkR7vcVI-ZxPXRzYf2-20">
          <mxGeometry width="100" height="100" relative="1" as="geometry">
            <mxPoint x="1344.4319460067493" y="2364.6942173198345" as="sourcePoint" />
            <mxPoint x="2413.4983127109113" y="2042.792746603405" as="targetPoint" />
          </mxGeometry>
        </mxCell>
        <mxCell id="LVKkR7vcVI-ZxPXRzYf2-179" value="Performs" style="shape=rhombus;perimeter=rhombusPerimeter;whiteSpace=wrap;html=1;align=center;container=0;" vertex="1" parent="LVKkR7vcVI-ZxPXRzYf2-1">
          <mxGeometry x="1028.5714285714284" y="2189.1115969290545" width="145.7817772778403" height="87.79131019538985" as="geometry" />
        </mxCell>
        <mxCell id="LVKkR7vcVI-ZxPXRzYf2-180" value="" style="edgeStyle=entityRelationEdgeStyle;fontSize=12;html=1;endArrow=ERmandOne;rounded=0;entryX=0;entryY=0.5;entryDx=0;entryDy=0;exitX=1;exitY=0.5;exitDx=0;exitDy=0;" edge="1" parent="LVKkR7vcVI-ZxPXRzYf2-1" source="LVKkR7vcVI-ZxPXRzYf2-179" target="LVKkR7vcVI-ZxPXRzYf2-20">
          <mxGeometry width="100" height="100" relative="1" as="geometry">
            <mxPoint x="1198.650168728909" y="2350.0623322872693" as="sourcePoint" />
            <mxPoint x="2267.716535433071" y="2028.16086157084" as="targetPoint" />
          </mxGeometry>
        </mxCell>
        <mxCell id="LVKkR7vcVI-ZxPXRzYf2-181" value="" style="fontSize=12;html=1;endArrow=ERoneToMany;rounded=0;exitX=0.5;exitY=1;exitDx=0;exitDy=0;entryX=0.25;entryY=0;entryDx=0;entryDy=0;" edge="1" parent="LVKkR7vcVI-ZxPXRzYf2-1" source="LVKkR7vcVI-ZxPXRzYf2-177" target="LVKkR7vcVI-ZxPXRzYf2-4">
          <mxGeometry width="100" height="100" relative="1" as="geometry">
            <mxPoint x="1347.4690663667043" y="2452.485527515224" as="sourcePoint" />
            <mxPoint x="639.8200224971878" y="3271.871089338863" as="targetPoint" />
          </mxGeometry>
        </mxCell>
        <mxCell id="LVKkR7vcVI-ZxPXRzYf2-182" value="" style="fontSize=12;html=1;endArrow=ERoneToMany;rounded=0;exitX=0.5;exitY=1;exitDx=0;exitDy=0;entryX=0.5;entryY=0;entryDx=0;entryDy=0;" edge="1" parent="LVKkR7vcVI-ZxPXRzYf2-1" source="LVKkR7vcVI-ZxPXRzYf2-179" target="LVKkR7vcVI-ZxPXRzYf2-263">
          <mxGeometry width="100" height="100" relative="1" as="geometry">
            <mxPoint x="1186.5016872890887" y="2481.749297580354" as="sourcePoint" />
            <mxPoint x="700.562429696288" y="3361.1255880375093" as="targetPoint" />
          </mxGeometry>
        </mxCell>
        <mxCell id="LVKkR7vcVI-ZxPXRzYf2-183" value="" style="endArrow=none;html=1;rounded=0;exitX=1;exitY=0.5;exitDx=0;exitDy=0;entryX=0;entryY=0.5;entryDx=0;entryDy=0;" edge="1" parent="LVKkR7vcVI-ZxPXRzYf2-1" source="LVKkR7vcVI-ZxPXRzYf2-4" target="LVKkR7vcVI-ZxPXRzYf2-258">
          <mxGeometry width="50" height="50" relative="1" as="geometry">
            <mxPoint x="1256.3554555680541" y="3184.650422659743" as="sourcePoint" />
            <mxPoint x="1328.509415235987" y="3112.378570156436" as="targetPoint" />
          </mxGeometry>
        </mxCell>
        <mxCell id="LVKkR7vcVI-ZxPXRzYf2-184" value="Performs" style="shape=rhombus;perimeter=rhombusPerimeter;whiteSpace=wrap;html=1;align=center;container=0;" vertex="1" parent="LVKkR7vcVI-ZxPXRzYf2-1">
          <mxGeometry x="1599.5500562429695" y="2803.6507682967836" width="145.7817772778403" height="87.79131019538985" as="geometry" />
        </mxCell>
        <mxCell id="LVKkR7vcVI-ZxPXRzYf2-185" value="" style="fontSize=12;html=1;endArrow=ERoneToMany;rounded=0;exitX=0.5;exitY=1;exitDx=0;exitDy=0;" edge="1" parent="LVKkR7vcVI-ZxPXRzYf2-1" source="LVKkR7vcVI-ZxPXRzYf2-184">
          <mxGeometry width="100" height="100" relative="1" as="geometry">
            <mxPoint x="1845.5568053993252" y="2876.810193459609" as="sourcePoint" />
            <mxPoint x="1198.650168728909" y="3345.030514501688" as="targetPoint" />
          </mxGeometry>
        </mxCell>
        <mxCell id="LVKkR7vcVI-ZxPXRzYf2-186" value="" style="fontSize=12;html=1;endArrow=ERmandOne;rounded=0;entryX=0.336;entryY=1.024;entryDx=0;entryDy=0;exitX=1;exitY=0.5;exitDx=0;exitDy=0;entryPerimeter=0;" edge="1" parent="LVKkR7vcVI-ZxPXRzYf2-1" source="LVKkR7vcVI-ZxPXRzYf2-184" target="LVKkR7vcVI-ZxPXRzYf2-20">
          <mxGeometry width="100" height="100" relative="1" as="geometry">
            <mxPoint x="1842.51968503937" y="2789.018883264219" as="sourcePoint" />
            <mxPoint x="2921.304836895388" y="2455.4119045217376" as="targetPoint" />
          </mxGeometry>
        </mxCell>
        <mxCell id="LVKkR7vcVI-ZxPXRzYf2-187" value="" style="fontSize=12;html=1;endArrow=ERmandOne;rounded=0;entryX=0.25;entryY=1;entryDx=0;entryDy=0;exitX=0.5;exitY=0;exitDx=0;exitDy=0;" edge="1" parent="LVKkR7vcVI-ZxPXRzYf2-1" source="LVKkR7vcVI-ZxPXRzYf2-184" target="LVKkR7vcVI-ZxPXRzYf2-20">
          <mxGeometry width="100" height="100" relative="1" as="geometry">
            <mxPoint x="1757.48031496063" y="2862.1783084270437" as="sourcePoint" />
            <mxPoint x="2492.463442069741" y="2042.792746603405" as="targetPoint" />
          </mxGeometry>
        </mxCell>
        <mxCell id="LVKkR7vcVI-ZxPXRzYf2-188" value="Country" style="shape=ellipse;margin=3;double=1;whiteSpace=wrap;html=1;align=center;perimeter=ellipsePerimeter;container=0;" vertex="1" parent="LVKkR7vcVI-ZxPXRzYf2-1">
          <mxGeometry x="585.1518560179977" y="2244.7127600528015" width="132.8740157480315" height="63.84822559664717" as="geometry" />
        </mxCell>
        <mxCell id="LVKkR7vcVI-ZxPXRzYf2-189" style="edgeStyle=orthogonalEdgeStyle;rounded=0;orthogonalLoop=1;jettySize=auto;html=1;exitX=0.25;exitY=0;exitDx=0;exitDy=0;endArrow=none;endFill=0;" edge="1" parent="LVKkR7vcVI-ZxPXRzYf2-1" source="LVKkR7vcVI-ZxPXRzYf2-211" target="LVKkR7vcVI-ZxPXRzYf2-188">
          <mxGeometry relative="1" as="geometry" />
        </mxCell>
        <mxCell id="LVKkR7vcVI-ZxPXRzYf2-190" style="rounded=0;orthogonalLoop=1;jettySize=auto;html=1;exitX=0;exitY=1;exitDx=0;exitDy=0;entryX=1;entryY=0;entryDx=0;entryDy=0;startArrow=none;startFill=0;endArrow=ERoneToMany;endFill=0;" edge="1" parent="LVKkR7vcVI-ZxPXRzYf2-1" source="LVKkR7vcVI-ZxPXRzYf2-153" target="LVKkR7vcVI-ZxPXRzYf2-137">
          <mxGeometry relative="1" as="geometry">
            <Array as="points" />
          </mxGeometry>
        </mxCell>
        <mxCell id="LVKkR7vcVI-ZxPXRzYf2-191" style="edgeStyle=orthogonalEdgeStyle;rounded=0;orthogonalLoop=1;jettySize=auto;html=1;exitX=1;exitY=0.25;exitDx=0;exitDy=0;endArrow=none;endFill=0;" edge="1" parent="LVKkR7vcVI-ZxPXRzYf2-1" source="LVKkR7vcVI-ZxPXRzYf2-133" target="LVKkR7vcVI-ZxPXRzYf2-3">
          <mxGeometry relative="1" as="geometry" />
        </mxCell>
        <mxCell id="LVKkR7vcVI-ZxPXRzYf2-192" value="" style="endArrow=none;html=1;rounded=0;exitX=1;exitY=0;exitDx=0;exitDy=0;entryX=0.5;entryY=1;entryDx=0;entryDy=0;" edge="1" parent="LVKkR7vcVI-ZxPXRzYf2-1" source="LVKkR7vcVI-ZxPXRzYf2-10" target="LVKkR7vcVI-ZxPXRzYf2-14">
          <mxGeometry width="50" height="50" relative="1" as="geometry">
            <mxPoint x="2784.026996625422" y="857.6100589656418" as="sourcePoint" />
            <mxPoint x="2869.0663667041617" y="813.7144038679469" as="targetPoint" />
          </mxGeometry>
        </mxCell>
        <mxCell id="LVKkR7vcVI-ZxPXRzYf2-193" style="rounded=0;orthogonalLoop=1;jettySize=auto;html=1;exitX=0;exitY=0.5;exitDx=0;exitDy=0;elbow=vertical;endArrow=none;endFill=0;entryX=1;entryY=0.5;entryDx=0;entryDy=0;" edge="1" parent="LVKkR7vcVI-ZxPXRzYf2-1" source="LVKkR7vcVI-ZxPXRzYf2-79" target="LVKkR7vcVI-ZxPXRzYf2-166">
          <mxGeometry relative="1" as="geometry">
            <mxPoint x="2377.0528683914513" y="2335.4304472547046" as="targetPoint" />
            <mxPoint x="2425.6467941507317" y="2489.0652400966364" as="sourcePoint" />
          </mxGeometry>
        </mxCell>
        <mxCell id="LVKkR7vcVI-ZxPXRzYf2-194" value="Performs" style="shape=rhombus;double=1;perimeter=rhombusPerimeter;whiteSpace=wrap;html=1;align=center;fontSize=16;container=0;" vertex="1" parent="LVKkR7vcVI-ZxPXRzYf2-1">
          <mxGeometry x="2741.5073115860523" y="2679.7187020709584" width="145.7817772778403" height="87.79131019538985" as="geometry" />
        </mxCell>
        <mxCell id="LVKkR7vcVI-ZxPXRzYf2-195" value="" style="edgeStyle=entityRelationEdgeStyle;fontSize=12;html=1;endArrow=ERzeroToMany;endFill=1;rounded=0;startSize=8;endSize=8;curved=1;entryX=1;entryY=0;entryDx=0;entryDy=0;exitX=0.5;exitY=1;exitDx=0;exitDy=0;" edge="1" parent="LVKkR7vcVI-ZxPXRzYf2-1" source="LVKkR7vcVI-ZxPXRzYf2-194" target="LVKkR7vcVI-ZxPXRzYf2-96">
          <mxGeometry width="100" height="100" relative="1" as="geometry">
            <mxPoint x="2723.2845894263214" y="2884.5650925268674" as="sourcePoint" />
            <mxPoint x="2443.869516310461" y="3104.043368015343" as="targetPoint" />
          </mxGeometry>
        </mxCell>
        <mxCell id="LVKkR7vcVI-ZxPXRzYf2-196" value="" style="fontSize=12;html=1;endArrow=ERmandOne;rounded=0;startSize=8;endSize=8;exitX=0.5;exitY=0;exitDx=0;exitDy=0;entryX=0.75;entryY=1;entryDx=0;entryDy=0;" edge="1" parent="LVKkR7vcVI-ZxPXRzYf2-1" source="LVKkR7vcVI-ZxPXRzYf2-194" target="LVKkR7vcVI-ZxPXRzYf2-20">
          <mxGeometry width="100" height="100" relative="1" as="geometry">
            <mxPoint x="2644.319460067492" y="2592.951623827848" as="sourcePoint" />
            <mxPoint x="2521.6197975253094" y="2101.320286733665" as="targetPoint" />
            <Array as="points">
              <mxPoint x="2644.319460067492" y="2335.4304472547046" />
            </Array>
          </mxGeometry>
        </mxCell>
        <mxCell id="LVKkR7vcVI-ZxPXRzYf2-197" style="rounded=0;orthogonalLoop=1;jettySize=auto;html=1;exitX=0;exitY=0;exitDx=0;exitDy=0;entryX=1;entryY=0.5;entryDx=0;entryDy=0;endArrow=none;endFill=0;" edge="1" parent="LVKkR7vcVI-ZxPXRzYf2-1" source="LVKkR7vcVI-ZxPXRzYf2-153" target="LVKkR7vcVI-ZxPXRzYf2-155">
          <mxGeometry relative="1" as="geometry" />
        </mxCell>
        <mxCell id="LVKkR7vcVI-ZxPXRzYf2-198" style="rounded=0;orthogonalLoop=1;jettySize=auto;html=1;exitX=0.82;exitY=0.117;exitDx=0;exitDy=0;entryX=1;entryY=0.5;entryDx=0;entryDy=0;endArrow=none;endFill=0;exitPerimeter=0;" edge="1" parent="LVKkR7vcVI-ZxPXRzYf2-1" source="LVKkR7vcVI-ZxPXRzYf2-122" target="LVKkR7vcVI-ZxPXRzYf2-121">
          <mxGeometry relative="1" as="geometry">
            <mxPoint x="3840.9448818897636" y="2759.7551131990886" as="sourcePoint" />
            <mxPoint x="4001.304836895388" y="2620.7522053897214" as="targetPoint" />
          </mxGeometry>
        </mxCell>
        <mxCell id="LVKkR7vcVI-ZxPXRzYf2-199" style="edgeStyle=orthogonalEdgeStyle;rounded=0;orthogonalLoop=1;jettySize=auto;html=1;exitX=1;exitY=0.5;exitDx=0;exitDy=0;endArrow=none;endFill=0;" edge="1" parent="LVKkR7vcVI-ZxPXRzYf2-1" source="LVKkR7vcVI-ZxPXRzYf2-137" target="LVKkR7vcVI-ZxPXRzYf2-156">
          <mxGeometry relative="1" as="geometry" />
        </mxCell>
        <mxCell id="LVKkR7vcVI-ZxPXRzYf2-200" style="edgeStyle=orthogonalEdgeStyle;rounded=0;orthogonalLoop=1;jettySize=auto;html=1;exitX=1;exitY=0.75;exitDx=0;exitDy=0;endArrow=none;endFill=0;curved=1;" edge="1" parent="LVKkR7vcVI-ZxPXRzYf2-1" source="LVKkR7vcVI-ZxPXRzYf2-92" target="LVKkR7vcVI-ZxPXRzYf2-161">
          <mxGeometry relative="1" as="geometry" />
        </mxCell>
        <mxCell id="LVKkR7vcVI-ZxPXRzYf2-201" style="edgeStyle=orthogonalEdgeStyle;rounded=0;orthogonalLoop=1;jettySize=auto;html=1;exitX=0;exitY=0.5;exitDx=0;exitDy=0;entryX=1;entryY=0.5;entryDx=0;entryDy=0;endArrow=none;endFill=0;" edge="1" parent="LVKkR7vcVI-ZxPXRzYf2-1" source="LVKkR7vcVI-ZxPXRzYf2-87" target="LVKkR7vcVI-ZxPXRzYf2-162">
          <mxGeometry relative="1" as="geometry" />
        </mxCell>
        <mxCell id="LVKkR7vcVI-ZxPXRzYf2-202" style="rounded=0;orthogonalLoop=1;jettySize=auto;html=1;exitX=0.908;exitY=1.008;exitDx=0;exitDy=0;entryX=0;entryY=0;entryDx=0;entryDy=0;endArrow=none;endFill=0;exitPerimeter=0;startArrow=ERmandOne;startFill=0;" edge="1" parent="LVKkR7vcVI-ZxPXRzYf2-1" source="LVKkR7vcVI-ZxPXRzYf2-20" target="LVKkR7vcVI-ZxPXRzYf2-163">
          <mxGeometry relative="1" as="geometry">
            <Array as="points">
              <mxPoint x="2862.992125984252" y="2554.908722743179" />
            </Array>
          </mxGeometry>
        </mxCell>
        <mxCell id="LVKkR7vcVI-ZxPXRzYf2-203" style="edgeStyle=orthogonalEdgeStyle;rounded=0;orthogonalLoop=1;jettySize=auto;html=1;exitX=0.5;exitY=0;exitDx=0;exitDy=0;entryX=0;entryY=1;entryDx=0;entryDy=0;endArrow=none;endFill=0;startArrow=ERzeroToMany;startFill=0;" edge="1" parent="LVKkR7vcVI-ZxPXRzYf2-1" source="LVKkR7vcVI-ZxPXRzYf2-133" target="LVKkR7vcVI-ZxPXRzYf2-163">
          <mxGeometry relative="1" as="geometry" />
        </mxCell>
        <mxCell id="LVKkR7vcVI-ZxPXRzYf2-204" style="rounded=0;orthogonalLoop=1;jettySize=auto;html=1;exitX=0.013;exitY=0.647;exitDx=0;exitDy=0;endArrow=none;endFill=0;exitPerimeter=0;" edge="1" parent="LVKkR7vcVI-ZxPXRzYf2-1" source="LVKkR7vcVI-ZxPXRzYf2-96" target="LVKkR7vcVI-ZxPXRzYf2-164">
          <mxGeometry relative="1" as="geometry" />
        </mxCell>
        <mxCell id="LVKkR7vcVI-ZxPXRzYf2-205" style="rounded=0;orthogonalLoop=1;jettySize=auto;html=1;exitX=0;exitY=0;exitDx=0;exitDy=0;elbow=vertical;endArrow=none;endFill=0;entryX=0.5;entryY=1;entryDx=0;entryDy=0;" edge="1" parent="LVKkR7vcVI-ZxPXRzYf2-1" source="LVKkR7vcVI-ZxPXRzYf2-79" target="LVKkR7vcVI-ZxPXRzYf2-165">
          <mxGeometry relative="1" as="geometry">
            <mxPoint x="2169.249896394529" y="2175.2498111087302" as="targetPoint" />
          </mxGeometry>
        </mxCell>
        <mxCell id="LVKkR7vcVI-ZxPXRzYf2-206" value="" style="edgeStyle=orthogonalEdgeStyle;fontSize=12;html=1;endArrow=ERmandOne;rounded=0;startSize=8;endSize=8;entryX=0.001;entryY=0.846;entryDx=0;entryDy=0;exitX=1;exitY=0.5;exitDx=0;exitDy=0;entryPerimeter=0;elbow=vertical;curved=1;" edge="1" parent="LVKkR7vcVI-ZxPXRzYf2-1" source="LVKkR7vcVI-ZxPXRzYf2-94" target="LVKkR7vcVI-ZxPXRzYf2-284">
          <mxGeometry width="100" height="100" relative="1" as="geometry">
            <mxPoint x="2389.2013498312713" y="2467.117412547789" as="sourcePoint" />
            <mxPoint x="2377.0528683914513" y="2393.957987384965" as="targetPoint" />
            <Array as="points">
              <mxPoint x="3725.534308211473" y="2803.6507682967836" />
              <mxPoint x="3725.534308211473" y="2194.9643509420807" />
            </Array>
          </mxGeometry>
        </mxCell>
        <mxCell id="LVKkR7vcVI-ZxPXRzYf2-207" value="" style="fontSize=12;html=1;endArrow=ERzeroToMany;endFill=1;rounded=0;startSize=8;endSize=8;exitX=0.5;exitY=1;exitDx=0;exitDy=0;entryX=0.5;entryY=0;entryDx=0;entryDy=0;" edge="1" parent="LVKkR7vcVI-ZxPXRzYf2-1" source="LVKkR7vcVI-ZxPXRzYf2-114" target="LVKkR7vcVI-ZxPXRzYf2-284">
          <mxGeometry width="100" height="100" relative="1" as="geometry">
            <mxPoint x="3093.8132733408324" y="1662.3637357567154" as="sourcePoint" />
            <mxPoint x="4261.417322834645" y="2069.427159624413" as="targetPoint" />
          </mxGeometry>
        </mxCell>
        <mxCell id="LVKkR7vcVI-ZxPXRzYf2-208" value="" style="fontSize=12;html=1;endArrow=ERoneToMany;rounded=0;exitX=1;exitY=1;exitDx=0;exitDy=0;" edge="1" parent="LVKkR7vcVI-ZxPXRzYf2-1" source="LVKkR7vcVI-ZxPXRzYf2-40" target="LVKkR7vcVI-ZxPXRzYf2-20">
          <mxGeometry width="100" height="100" relative="1" as="geometry">
            <mxPoint x="2364.9070866141733" y="1662.3649530516432" as="sourcePoint" />
            <mxPoint x="2362.0724409448817" y="1871.632558685446" as="targetPoint" />
          </mxGeometry>
        </mxCell>
        <mxCell id="LVKkR7vcVI-ZxPXRzYf2-209" value="Donation_ID" style="shape=ellipse;margin=3;double=1;whiteSpace=wrap;html=1;align=center;perimeter=ellipsePerimeter;container=0;" vertex="1" parent="LVKkR7vcVI-ZxPXRzYf2-1">
          <mxGeometry x="3123.779527559055" y="3334.2111971830986" width="121.48481439820023" height="58.52754013025991" as="geometry" />
        </mxCell>
        <mxCell id="LVKkR7vcVI-ZxPXRzYf2-210" style="edgeStyle=orthogonalEdgeStyle;rounded=0;orthogonalLoop=1;jettySize=auto;html=1;exitX=0.5;exitY=1;exitDx=0;exitDy=0;endArrow=none;endFill=0;" edge="1" parent="LVKkR7vcVI-ZxPXRzYf2-1" source="LVKkR7vcVI-ZxPXRzYf2-133" target="LVKkR7vcVI-ZxPXRzYf2-209">
          <mxGeometry relative="1" as="geometry" />
        </mxCell>
        <mxCell id="LVKkR7vcVI-ZxPXRzYf2-211" value="Beneficiary" style="shape=ext;margin=3;double=1;whiteSpace=wrap;html=1;align=center;container=0;" vertex="1" parent="LVKkR7vcVI-ZxPXRzYf2-1">
          <mxGeometry x="706.4468503937007" y="2342.0813040876883" width="132.8740157480315" height="63.84822559664717" as="geometry" />
        </mxCell>
        <mxCell id="LVKkR7vcVI-ZxPXRzYf2-212" value="&lt;u&gt;National_ID&lt;/u&gt;" style="ellipse;whiteSpace=wrap;html=1;align=center;container=0;" vertex="1" parent="LVKkR7vcVI-ZxPXRzYf2-1">
          <mxGeometry x="566.9291338582677" y="2421.8915860834977" width="132.8740157480315" height="63.84822559664717" as="geometry" />
        </mxCell>
        <mxCell id="LVKkR7vcVI-ZxPXRzYf2-213" style="edgeStyle=orthogonalEdgeStyle;rounded=0;orthogonalLoop=1;jettySize=auto;html=1;exitX=0.25;exitY=1;exitDx=0;exitDy=0;entryX=1;entryY=0.5;entryDx=0;entryDy=0;endArrow=none;endFill=0;" edge="1" parent="LVKkR7vcVI-ZxPXRzYf2-1" source="LVKkR7vcVI-ZxPXRzYf2-211" target="LVKkR7vcVI-ZxPXRzYf2-212">
          <mxGeometry relative="1" as="geometry">
            <mxPoint x="686.515748031496" y="2437.8536424826593" as="targetPoint" />
          </mxGeometry>
        </mxCell>
        <mxCell id="LVKkR7vcVI-ZxPXRzYf2-214" value="Bank_Name" style="ellipse;whiteSpace=wrap;html=1;align=center;container=0;" vertex="1" parent="LVKkR7vcVI-ZxPXRzYf2-1">
          <mxGeometry x="739.6653543307086" y="2549.588037276792" width="132.8740157480315" height="63.84822559664717" as="geometry" />
        </mxCell>
        <mxCell id="LVKkR7vcVI-ZxPXRzYf2-215" style="edgeStyle=orthogonalEdgeStyle;rounded=0;orthogonalLoop=1;jettySize=auto;html=1;entryX=0.5;entryY=0;entryDx=0;entryDy=0;endArrow=none;endFill=0;" edge="1" parent="LVKkR7vcVI-ZxPXRzYf2-1" source="LVKkR7vcVI-ZxPXRzYf2-211" target="LVKkR7vcVI-ZxPXRzYf2-214">
          <mxGeometry relative="1" as="geometry">
            <mxPoint x="806.1023622047244" y="2549.588037276792" as="targetPoint" />
          </mxGeometry>
        </mxCell>
        <mxCell id="LVKkR7vcVI-ZxPXRzYf2-216" value="&lt;u&gt;Account_no&lt;/u&gt;" style="ellipse;whiteSpace=wrap;html=1;align=center;container=0;" vertex="1" parent="LVKkR7vcVI-ZxPXRzYf2-1">
          <mxGeometry x="859.251968503937" y="2469.777755280983" width="132.8740157480315" height="63.84822559664717" as="geometry" />
        </mxCell>
        <mxCell id="LVKkR7vcVI-ZxPXRzYf2-217" style="edgeStyle=orthogonalEdgeStyle;rounded=0;orthogonalLoop=1;jettySize=auto;html=1;exitX=1;exitY=0.75;exitDx=0;exitDy=0;entryX=0.5;entryY=0;entryDx=0;entryDy=0;endArrow=none;endFill=0;" edge="1" parent="LVKkR7vcVI-ZxPXRzYf2-1" source="LVKkR7vcVI-ZxPXRzYf2-211" target="LVKkR7vcVI-ZxPXRzYf2-216">
          <mxGeometry relative="1" as="geometry">
            <mxPoint x="899.1141732283464" y="2453.815698881821" as="targetPoint" />
          </mxGeometry>
        </mxCell>
        <mxCell id="LVKkR7vcVI-ZxPXRzYf2-218" value="IBAN" style="ellipse;whiteSpace=wrap;html=1;align=center;container=0;" vertex="1" parent="LVKkR7vcVI-ZxPXRzYf2-1">
          <mxGeometry x="832.6771653543307" y="2247.639137059314" width="132.8740157480315" height="63.84822559664717" as="geometry" />
        </mxCell>
        <mxCell id="LVKkR7vcVI-ZxPXRzYf2-219" style="edgeStyle=orthogonalEdgeStyle;rounded=0;orthogonalLoop=1;jettySize=auto;html=1;exitX=1;exitY=0.5;exitDx=0;exitDy=0;entryX=0.5;entryY=1;entryDx=0;entryDy=0;endArrow=none;endFill=0;" edge="1" parent="LVKkR7vcVI-ZxPXRzYf2-1" source="LVKkR7vcVI-ZxPXRzYf2-211" target="LVKkR7vcVI-ZxPXRzYf2-218">
          <mxGeometry relative="1" as="geometry">
            <mxPoint x="885.8267716535432" y="2326.1192476885267" as="targetPoint" />
          </mxGeometry>
        </mxCell>
        <mxCell id="LVKkR7vcVI-ZxPXRzYf2-220" value="Banker" style="whiteSpace=wrap;html=1;align=center;container=0;" vertex="1" parent="LVKkR7vcVI-ZxPXRzYf2-1">
          <mxGeometry x="3458.2677165354335" y="1281.934724910026" width="121.48481439820023" height="58.52754013025991" as="geometry" />
        </mxCell>
        <mxCell id="LVKkR7vcVI-ZxPXRzYf2-221" value="" style="edgeStyle=entityRelationEdgeStyle;fontSize=12;html=1;endArrow=ERoneToMany;rounded=0;exitX=0;exitY=0.5;exitDx=0;exitDy=0;entryX=0.87;entryY=1.042;entryDx=0;entryDy=0;entryPerimeter=0;" edge="1" parent="LVKkR7vcVI-ZxPXRzYf2-1" source="LVKkR7vcVI-ZxPXRzYf2-177" target="LVKkR7vcVI-ZxPXRzYf2-211">
          <mxGeometry width="100" height="100" relative="1" as="geometry">
            <mxPoint x="1113.6107986501688" y="2306.166677189575" as="sourcePoint" />
            <mxPoint x="887.6490438695162" y="2402.7371184045032" as="targetPoint" />
          </mxGeometry>
        </mxCell>
        <mxCell id="LVKkR7vcVI-ZxPXRzYf2-222" value="B_National_ID" style="ellipse;whiteSpace=wrap;html=1;align=center;fontStyle=4;container=0;" vertex="1" parent="LVKkR7vcVI-ZxPXRzYf2-1">
          <mxGeometry x="3476.4904386951634" y="1150.2477596169415" width="121.48481439820023" height="58.52754013025991" as="geometry" />
        </mxCell>
        <mxCell id="LVKkR7vcVI-ZxPXRzYf2-223" value="Full_Name" style="ellipse;whiteSpace=wrap;html=1;align=center;container=0;" vertex="1" parent="LVKkR7vcVI-ZxPXRzYf2-1">
          <mxGeometry x="3597.9752530933633" y="1194.1434147146363" width="121.48481439820023" height="58.52754013025991" as="geometry" />
        </mxCell>
        <mxCell id="LVKkR7vcVI-ZxPXRzYf2-224" value="Address" style="ellipse;whiteSpace=wrap;html=1;align=center;container=0;" vertex="1" parent="LVKkR7vcVI-ZxPXRzYf2-1">
          <mxGeometry x="3732.2821147356585" y="1234.1933186386223" width="121.48481439820023" height="58.52754013025991" as="geometry" />
        </mxCell>
        <mxCell id="LVKkR7vcVI-ZxPXRzYf2-225" value="Phone_Number" style="ellipse;shape=doubleEllipse;margin=3;whiteSpace=wrap;html=1;align=center;container=0;" vertex="1" parent="LVKkR7vcVI-ZxPXRzYf2-1">
          <mxGeometry x="3695.1631046119237" y="1311.1984949751563" width="121.48481439820023" height="58.52754013025991" as="geometry" />
        </mxCell>
        <mxCell id="LVKkR7vcVI-ZxPXRzYf2-226" value="Email" style="ellipse;whiteSpace=wrap;html=1;align=center;container=0;" vertex="1" parent="LVKkR7vcVI-ZxPXRzYf2-1">
          <mxGeometry x="3640.4949381327333" y="1369.726035105416" width="121.48481439820023" height="58.52754013025991" as="geometry" />
        </mxCell>
        <mxCell id="LVKkR7vcVI-ZxPXRzYf2-227" value="" style="endArrow=none;html=1;rounded=0;entryX=0;entryY=0;entryDx=0;entryDy=0;exitX=1;exitY=1;exitDx=0;exitDy=0;" edge="1" parent="LVKkR7vcVI-ZxPXRzYf2-1" source="LVKkR7vcVI-ZxPXRzYf2-220" target="LVKkR7vcVI-ZxPXRzYf2-226">
          <mxGeometry width="50" height="50" relative="1" as="geometry">
            <mxPoint x="3579.7525309336334" y="1340.4622650402862" as="sourcePoint" />
            <mxPoint x="3640.4949381327333" y="1267.302839877461" as="targetPoint" />
          </mxGeometry>
        </mxCell>
        <mxCell id="LVKkR7vcVI-ZxPXRzYf2-228" value="" style="endArrow=none;html=1;rounded=0;entryX=0;entryY=0.5;entryDx=0;entryDy=0;exitX=1;exitY=0.75;exitDx=0;exitDy=0;" edge="1" parent="LVKkR7vcVI-ZxPXRzYf2-1" source="LVKkR7vcVI-ZxPXRzYf2-220" target="LVKkR7vcVI-ZxPXRzYf2-225">
          <mxGeometry width="50" height="50" relative="1" as="geometry">
            <mxPoint x="3579.7525309336334" y="1340.4622650402862" as="sourcePoint" />
            <mxPoint x="3640.4949381327333" y="1267.302839877461" as="targetPoint" />
          </mxGeometry>
        </mxCell>
        <mxCell id="LVKkR7vcVI-ZxPXRzYf2-229" value="" style="endArrow=none;html=1;rounded=0;entryX=0;entryY=0.5;entryDx=0;entryDy=0;" edge="1" parent="LVKkR7vcVI-ZxPXRzYf2-1" target="LVKkR7vcVI-ZxPXRzYf2-224">
          <mxGeometry width="50" height="50" relative="1" as="geometry">
            <mxPoint x="3579.7525309336334" y="1311.1984949751563" as="sourcePoint" />
            <mxPoint x="3640.4949381327333" y="1238.039069812331" as="targetPoint" />
          </mxGeometry>
        </mxCell>
        <mxCell id="LVKkR7vcVI-ZxPXRzYf2-230" value="" style="endArrow=none;html=1;rounded=0;" edge="1" parent="LVKkR7vcVI-ZxPXRzYf2-1" target="LVKkR7vcVI-ZxPXRzYf2-223">
          <mxGeometry width="50" height="50" relative="1" as="geometry">
            <mxPoint x="3549.381327334083" y="1281.934724910026" as="sourcePoint" />
            <mxPoint x="3610.1237345331833" y="1208.7752997472014" as="targetPoint" />
          </mxGeometry>
        </mxCell>
        <mxCell id="LVKkR7vcVI-ZxPXRzYf2-231" value="" style="endArrow=none;html=1;rounded=0;entryX=0.5;entryY=1;entryDx=0;entryDy=0;exitX=0.665;exitY=-0.015;exitDx=0;exitDy=0;exitPerimeter=0;" edge="1" parent="LVKkR7vcVI-ZxPXRzYf2-1" source="LVKkR7vcVI-ZxPXRzYf2-220" target="LVKkR7vcVI-ZxPXRzYf2-222">
          <mxGeometry width="50" height="50" relative="1" as="geometry">
            <mxPoint x="3525.0843644544434" y="1281.934724910026" as="sourcePoint" />
            <mxPoint x="3585.8267716535433" y="1208.7752997472014" as="targetPoint" />
          </mxGeometry>
        </mxCell>
        <mxCell id="LVKkR7vcVI-ZxPXRzYf2-232" value="Reports" style="whiteSpace=wrap;html=1;align=center;container=0;" vertex="1" parent="LVKkR7vcVI-ZxPXRzYf2-1">
          <mxGeometry x="3245.6692913385823" y="1881.8420112451904" width="121.48481439820023" height="58.52754013025991" as="geometry" />
        </mxCell>
        <mxCell id="LVKkR7vcVI-ZxPXRzYf2-233" value="" style="edgeStyle=orthogonalEdgeStyle;rounded=0;orthogonalLoop=1;jettySize=auto;html=1;endArrow=none;endFill=0;" edge="1" parent="LVKkR7vcVI-ZxPXRzYf2-1" source="LVKkR7vcVI-ZxPXRzYf2-234" target="LVKkR7vcVI-ZxPXRzYf2-232">
          <mxGeometry relative="1" as="geometry" />
        </mxCell>
        <mxCell id="LVKkR7vcVI-ZxPXRzYf2-234" value="Date Issued" style="ellipse;whiteSpace=wrap;html=1;align=center;container=0;" vertex="1" parent="LVKkR7vcVI-ZxPXRzYf2-1">
          <mxGeometry x="3245.6692913385823" y="1998.89709150571" width="121.48481439820023" height="58.52754013025991" as="geometry" />
        </mxCell>
        <mxCell id="LVKkR7vcVI-ZxPXRzYf2-235" value="&lt;u&gt;Report Number&lt;/u&gt;" style="ellipse;whiteSpace=wrap;html=1;align=center;container=0;" vertex="1" parent="LVKkR7vcVI-ZxPXRzYf2-1">
          <mxGeometry x="3427.8965129358826" y="1881.8420112451904" width="121.48481439820023" height="58.52754013025991" as="geometry" />
        </mxCell>
        <mxCell id="LVKkR7vcVI-ZxPXRzYf2-236" value="" style="edgeStyle=orthogonalEdgeStyle;rounded=0;orthogonalLoop=1;jettySize=auto;html=1;endArrow=none;endFill=0;" edge="1" parent="LVKkR7vcVI-ZxPXRzYf2-1" source="LVKkR7vcVI-ZxPXRzYf2-232" target="LVKkR7vcVI-ZxPXRzYf2-235">
          <mxGeometry relative="1" as="geometry" />
        </mxCell>
        <mxCell id="LVKkR7vcVI-ZxPXRzYf2-237" value="Type" style="ellipse;whiteSpace=wrap;html=1;align=center;container=0;" vertex="1" parent="LVKkR7vcVI-ZxPXRzYf2-1">
          <mxGeometry x="3069.516310461192" y="1837.9463561474952" width="121.48481439820023" height="58.52754013025991" as="geometry" />
        </mxCell>
        <mxCell id="LVKkR7vcVI-ZxPXRzYf2-238" style="rounded=0;orthogonalLoop=1;jettySize=auto;html=1;exitX=0.5;exitY=1;exitDx=0;exitDy=0;entryX=0.5;entryY=0;entryDx=0;entryDy=0;endArrow=ERzeroToMany;endFill=0;" edge="1" parent="LVKkR7vcVI-ZxPXRzYf2-1" source="LVKkR7vcVI-ZxPXRzYf2-239" target="LVKkR7vcVI-ZxPXRzYf2-232">
          <mxGeometry relative="1" as="geometry" />
        </mxCell>
        <mxCell id="LVKkR7vcVI-ZxPXRzYf2-239" value="Issue" style="shape=rhombus;perimeter=rhombusPerimeter;whiteSpace=wrap;html=1;align=center;container=0;" vertex="1" parent="LVKkR7vcVI-ZxPXRzYf2-1">
          <mxGeometry x="3069.516310461192" y="1603.8361956264557" width="145.7817772778403" height="87.79131019538985" as="geometry" />
        </mxCell>
        <mxCell id="LVKkR7vcVI-ZxPXRzYf2-240" value="" style="edgeStyle=orthogonalEdgeStyle;rounded=0;orthogonalLoop=1;jettySize=auto;html=1;endArrow=none;endFill=0;" edge="1" parent="LVKkR7vcVI-ZxPXRzYf2-1" source="LVKkR7vcVI-ZxPXRzYf2-232" target="LVKkR7vcVI-ZxPXRzYf2-237">
          <mxGeometry relative="1" as="geometry" />
        </mxCell>
        <mxCell id="LVKkR7vcVI-ZxPXRzYf2-241" value="Respond Technincally" style="shape=rhombus;perimeter=rhombusPerimeter;whiteSpace=wrap;html=1;align=center;container=0;" vertex="1" parent="LVKkR7vcVI-ZxPXRzYf2-1">
          <mxGeometry x="3227.4465691788528" y="1603.8361956264557" width="182.22722159730031" height="117.05508026051982" as="geometry" />
        </mxCell>
        <mxCell id="LVKkR7vcVI-ZxPXRzYf2-242" style="edgeStyle=orthogonalEdgeStyle;rounded=0;orthogonalLoop=1;jettySize=auto;html=1;exitX=0.5;exitY=1;exitDx=0;exitDy=0;entryX=0.75;entryY=0;entryDx=0;entryDy=0;endArrow=ERzeroToMany;endFill=0;" edge="1" parent="LVKkR7vcVI-ZxPXRzYf2-1" source="LVKkR7vcVI-ZxPXRzYf2-241" target="LVKkR7vcVI-ZxPXRzYf2-232">
          <mxGeometry relative="1" as="geometry" />
        </mxCell>
        <mxCell id="LVKkR7vcVI-ZxPXRzYf2-243" value="Respond Monetarily" style="shape=rhombus;perimeter=rhombusPerimeter;whiteSpace=wrap;html=1;align=center;container=0;" vertex="1" parent="LVKkR7vcVI-ZxPXRzYf2-1">
          <mxGeometry x="3406.636670416198" y="1578.961991071095" width="164.0044994375703" height="112.66551475075033" as="geometry" />
        </mxCell>
        <mxCell id="LVKkR7vcVI-ZxPXRzYf2-244" style="edgeStyle=orthogonalEdgeStyle;rounded=0;orthogonalLoop=1;jettySize=auto;html=1;exitX=0.5;exitY=1;exitDx=0;exitDy=0;entryX=1;entryY=0;entryDx=0;entryDy=0;endArrow=ERzeroToMany;endFill=0;" edge="1" parent="LVKkR7vcVI-ZxPXRzYf2-1" source="LVKkR7vcVI-ZxPXRzYf2-243" target="LVKkR7vcVI-ZxPXRzYf2-232">
          <mxGeometry relative="1" as="geometry" />
        </mxCell>
        <mxCell id="LVKkR7vcVI-ZxPXRzYf2-245" value="Amount" style="ellipse;whiteSpace=wrap;html=1;align=center;container=0;" vertex="1" parent="LVKkR7vcVI-ZxPXRzYf2-1">
          <mxGeometry x="1131.8335208098988" y="2761.3207248975727" width="121.48481439820023" height="58.52754013025991" as="geometry" />
        </mxCell>
        <mxCell id="LVKkR7vcVI-ZxPXRzYf2-246" value="&lt;u&gt;Transfer_ID&lt;/u&gt;" style="ellipse;whiteSpace=wrap;html=1;align=center;container=0;" vertex="1" parent="LVKkR7vcVI-ZxPXRzYf2-1">
          <mxGeometry x="1289.763779527559" y="2541.8424494090987" width="121.48481439820023" height="58.52754013025991" as="geometry" />
        </mxCell>
        <mxCell id="LVKkR7vcVI-ZxPXRzYf2-247" value="Reason" style="ellipse;whiteSpace=wrap;html=1;align=center;container=0;" vertex="1" parent="LVKkR7vcVI-ZxPXRzYf2-1">
          <mxGeometry x="1229.021372328459" y="2600.3699895393584" width="121.48481439820023" height="58.52754013025991" as="geometry" />
        </mxCell>
        <mxCell id="LVKkR7vcVI-ZxPXRzYf2-248" value="" style="endArrow=none;html=1;rounded=0;entryX=1;entryY=0.5;entryDx=0;entryDy=0;exitX=0;exitY=0.5;exitDx=0;exitDy=0;" edge="1" parent="LVKkR7vcVI-ZxPXRzYf2-1" source="LVKkR7vcVI-ZxPXRzYf2-253" target="LVKkR7vcVI-ZxPXRzYf2-245">
          <mxGeometry width="50" height="50" relative="1" as="geometry">
            <mxPoint x="1417.322834645669" y="2784.526894559221" as="sourcePoint" />
            <mxPoint x="1338.357705286839" y="2769.895009526656" as="targetPoint" />
          </mxGeometry>
        </mxCell>
        <mxCell id="LVKkR7vcVI-ZxPXRzYf2-249" value="" style="endArrow=none;html=1;rounded=0;exitX=0.304;exitY=0.97;exitDx=0;exitDy=0;entryX=0.25;entryY=0;entryDx=0;entryDy=0;exitPerimeter=0;" edge="1" parent="LVKkR7vcVI-ZxPXRzYf2-1" source="LVKkR7vcVI-ZxPXRzYf2-247" target="LVKkR7vcVI-ZxPXRzYf2-253">
          <mxGeometry width="50" height="50" relative="1" as="geometry">
            <mxPoint x="1368.7289088863893" y="2901.5819748197405" as="sourcePoint" />
            <mxPoint x="1430.6861642294714" y="2753.4487707500534" as="targetPoint" />
          </mxGeometry>
        </mxCell>
        <mxCell id="LVKkR7vcVI-ZxPXRzYf2-250" value="Transfer_Time" style="ellipse;whiteSpace=wrap;html=1;align=center;container=0;" vertex="1" parent="LVKkR7vcVI-ZxPXRzYf2-1">
          <mxGeometry x="1468.9538807649044" y="2615.001874571923" width="121.48481439820023" height="58.52754013025991" as="geometry" />
        </mxCell>
        <mxCell id="LVKkR7vcVI-ZxPXRzYf2-251" value="" style="edgeStyle=entityRelationEdgeStyle;fontSize=12;html=1;endArrow=ERoneToMany;rounded=0;exitX=0;exitY=0.5;exitDx=0;exitDy=0;entryX=1;entryY=0.25;entryDx=0;entryDy=0;" edge="1" parent="LVKkR7vcVI-ZxPXRzYf2-1" source="LVKkR7vcVI-ZxPXRzYf2-179" target="LVKkR7vcVI-ZxPXRzYf2-211">
          <mxGeometry width="100" height="100" relative="1" as="geometry">
            <mxPoint x="967.8290213723285" y="2291.5347921570096" as="sourcePoint" />
            <mxPoint x="741.867266591676" y="2388.105233371938" as="targetPoint" />
          </mxGeometry>
        </mxCell>
        <mxCell id="LVKkR7vcVI-ZxPXRzYf2-252" value="Time frame" style="ellipse;whiteSpace=wrap;html=1;align=center;container=0;" vertex="1" parent="LVKkR7vcVI-ZxPXRzYf2-1">
          <mxGeometry x="1180.4274465691785" y="2682.1036993312664" width="121.48481439820023" height="58.52754013025991" as="geometry" />
        </mxCell>
        <mxCell id="LVKkR7vcVI-ZxPXRzYf2-253" value="Transfer" style="shape=ext;margin=3;double=1;whiteSpace=wrap;html=1;align=center;fontSize=16;container=0;" vertex="1" parent="LVKkR7vcVI-ZxPXRzYf2-1">
          <mxGeometry x="1417.322834645669" y="2740.631239461526" width="121.48481439820023" height="58.52754013025991" as="geometry" />
        </mxCell>
        <mxCell id="LVKkR7vcVI-ZxPXRzYf2-254" style="edgeStyle=orthogonalEdgeStyle;rounded=0;orthogonalLoop=1;jettySize=auto;html=1;exitX=0.25;exitY=1;exitDx=0;exitDy=0;entryX=0.5;entryY=0;entryDx=0;entryDy=0;startArrow=ERmandOne;startFill=0;endArrow=none;endFill=0;" edge="1" parent="LVKkR7vcVI-ZxPXRzYf2-1" source="LVKkR7vcVI-ZxPXRzYf2-220" target="LVKkR7vcVI-ZxPXRzYf2-243">
          <mxGeometry relative="1" as="geometry">
            <mxPoint x="3579.7525309336343" y="1530.6767704636306" as="targetPoint" />
          </mxGeometry>
        </mxCell>
        <mxCell id="LVKkR7vcVI-ZxPXRzYf2-255" value="" style="endArrow=none;html=1;rounded=0;entryX=1;entryY=1;entryDx=0;entryDy=0;exitX=0;exitY=0.25;exitDx=0;exitDy=0;" edge="1" parent="LVKkR7vcVI-ZxPXRzYf2-1" source="LVKkR7vcVI-ZxPXRzYf2-253" target="LVKkR7vcVI-ZxPXRzYf2-252">
          <mxGeometry width="50" height="50" relative="1" as="geometry">
            <mxPoint x="1417.322834645669" y="2769.8950095266564" as="sourcePoint" />
            <mxPoint x="1312.4814398200224" y="2722.5169657912106" as="targetPoint" />
          </mxGeometry>
        </mxCell>
        <mxCell id="LVKkR7vcVI-ZxPXRzYf2-256" value="" style="endArrow=none;html=1;rounded=0;entryX=1;entryY=1;entryDx=0;entryDy=0;exitX=0.25;exitY=0;exitDx=0;exitDy=0;" edge="1" parent="LVKkR7vcVI-ZxPXRzYf2-1" source="LVKkR7vcVI-ZxPXRzYf2-253" target="LVKkR7vcVI-ZxPXRzYf2-246">
          <mxGeometry width="50" height="50" relative="1" as="geometry">
            <mxPoint x="1465.9167604049494" y="2579.8853504937674" as="sourcePoint" />
            <mxPoint x="1332.283464566929" y="2556.4743344416634" as="targetPoint" />
          </mxGeometry>
        </mxCell>
        <mxCell id="LVKkR7vcVI-ZxPXRzYf2-257" value="" style="fontSize=12;html=1;endArrow=ERoneToMany;rounded=0;exitX=0.5;exitY=1;exitDx=0;exitDy=0;entryX=0.25;entryY=0;entryDx=0;entryDy=0;" edge="1" parent="LVKkR7vcVI-ZxPXRzYf2-1" target="LVKkR7vcVI-ZxPXRzYf2-262">
          <mxGeometry width="100" height="100" relative="1" as="geometry">
            <mxPoint x="1323.172103487064" y="2330.2068642980785" as="sourcePoint" />
            <mxPoint x="837.2328458942632" y="3209.583154755234" as="targetPoint" />
            <Array as="points">
              <mxPoint x="973.2283464566929" y="2757.807441314554" />
            </Array>
          </mxGeometry>
        </mxCell>
        <mxCell id="LVKkR7vcVI-ZxPXRzYf2-258" value="d" style="ellipse;whiteSpace=wrap;html=1;aspect=fixed;container=0;" vertex="1" parent="LVKkR7vcVI-ZxPXRzYf2-1">
          <mxGeometry x="843.3070866141732" y="3023.129043785258" width="34.54462286881871" height="34.54462286881871" as="geometry" />
        </mxCell>
        <mxCell id="LVKkR7vcVI-ZxPXRzYf2-259" value="" style="endArrow=none;html=1;rounded=0;entryX=0.25;entryY=0;entryDx=0;entryDy=0;" edge="1" parent="LVKkR7vcVI-ZxPXRzYf2-1" source="LVKkR7vcVI-ZxPXRzYf2-258" target="LVKkR7vcVI-ZxPXRzYf2-263">
          <mxGeometry width="50" height="50" relative="1" as="geometry">
            <mxPoint x="1336.0575138978709" y="3096.2834966206137" as="sourcePoint" />
            <mxPoint x="1456.8053993250844" y="3212.4510042216166" as="targetPoint" />
          </mxGeometry>
        </mxCell>
        <mxCell id="LVKkR7vcVI-ZxPXRzYf2-260" value="" style="endArrow=none;html=1;rounded=0;exitX=0.446;exitY=-0.011;exitDx=0;exitDy=0;entryX=0.5;entryY=1;entryDx=0;entryDy=0;exitPerimeter=0;" edge="1" parent="LVKkR7vcVI-ZxPXRzYf2-1" source="LVKkR7vcVI-ZxPXRzYf2-262" target="LVKkR7vcVI-ZxPXRzYf2-258">
          <mxGeometry width="50" height="50" relative="1" as="geometry">
            <mxPoint x="1232.0584926884142" y="3183.1872341564863" as="sourcePoint" />
            <mxPoint x="1323.1721034870639" y="3102.7118664773784" as="targetPoint" />
          </mxGeometry>
        </mxCell>
        <mxCell id="LVKkR7vcVI-ZxPXRzYf2-261" style="rounded=0;orthogonalLoop=1;jettySize=auto;html=1;exitX=1;exitY=0.5;exitDx=0;exitDy=0;entryX=0.5;entryY=0;entryDx=0;entryDy=0;endArrow=none;endFill=0;" edge="1" parent="LVKkR7vcVI-ZxPXRzYf2-1" source="LVKkR7vcVI-ZxPXRzYf2-258" target="LVKkR7vcVI-ZxPXRzYf2-266">
          <mxGeometry relative="1" as="geometry" />
        </mxCell>
        <mxCell id="LVKkR7vcVI-ZxPXRzYf2-262" value="Domestic" style="whiteSpace=wrap;html=1;align=center;container=0;" vertex="1" parent="LVKkR7vcVI-ZxPXRzYf2-1">
          <mxGeometry x="609.4488188976377" y="3167.984705607651" width="121.48481439820023" height="58.52754013025991" as="geometry" />
        </mxCell>
        <mxCell id="LVKkR7vcVI-ZxPXRzYf2-263" value="International" style="whiteSpace=wrap;html=1;align=center;container=0;" vertex="1" parent="LVKkR7vcVI-ZxPXRzYf2-1">
          <mxGeometry x="919.2350956130483" y="3343.5673259984314" width="121.48481439820023" height="58.52754013025991" as="geometry" />
        </mxCell>
        <mxCell id="LVKkR7vcVI-ZxPXRzYf2-264" value="IBAN" style="ellipse;whiteSpace=wrap;html=1;align=center;container=0;" vertex="1" parent="LVKkR7vcVI-ZxPXRzYf2-1">
          <mxGeometry x="852.4184476940382" y="3438.6745787101036" width="121.48481439820023" height="58.52754013025991" as="geometry" />
        </mxCell>
        <mxCell id="LVKkR7vcVI-ZxPXRzYf2-265" value="" style="endArrow=none;html=1;rounded=0;exitX=0.67;exitY=0.066;exitDx=0;exitDy=0;exitPerimeter=0;entryX=0.25;entryY=1;entryDx=0;entryDy=0;" edge="1" parent="LVKkR7vcVI-ZxPXRzYf2-1" source="LVKkR7vcVI-ZxPXRzYf2-264" target="LVKkR7vcVI-ZxPXRzYf2-263">
          <mxGeometry width="50" height="50" relative="1" as="geometry">
            <mxPoint x="858.4926884139481" y="3530.8554544152626" as="sourcePoint" />
            <mxPoint x="967.8290213723283" y="3467.9383487752334" as="targetPoint" />
          </mxGeometry>
        </mxCell>
        <mxCell id="LVKkR7vcVI-ZxPXRzYf2-266" value="Own" style="whiteSpace=wrap;html=1;align=center;container=0;" vertex="1" parent="LVKkR7vcVI-ZxPXRzYf2-1">
          <mxGeometry x="1071.0911136107984" y="3343.567325998432" width="121.48481439820023" height="52.104142600963876" as="geometry" />
        </mxCell>
        <mxCell id="LVKkR7vcVI-ZxPXRzYf2-267" value="Deadline" style="whiteSpace=wrap;html=1;align=center;fontSize=12;shape=ellipse;perimeter=ellipsePerimeter;container=0;" vertex="1" parent="LVKkR7vcVI-ZxPXRzYf2-1">
          <mxGeometry x="4442.294713160855" y="2159.8478268639246" width="121.48481439820023" height="58.52754013025991" as="geometry" />
        </mxCell>
        <mxCell id="LVKkR7vcVI-ZxPXRzYf2-268" style="edgeStyle=orthogonalEdgeStyle;rounded=0;orthogonalLoop=1;jettySize=auto;html=1;exitX=1;exitY=0.75;exitDx=0;exitDy=0;endArrow=none;endFill=0;" edge="1" parent="LVKkR7vcVI-ZxPXRzYf2-1" source="LVKkR7vcVI-ZxPXRzYf2-284" target="LVKkR7vcVI-ZxPXRzYf2-267">
          <mxGeometry relative="1" as="geometry" />
        </mxCell>
        <mxCell id="LVKkR7vcVI-ZxPXRzYf2-269" value="BaseInterest" style="whiteSpace=wrap;html=1;align=center;fontSize=12;fillColor=default;strokeColor=default;shape=ellipse;perimeter=ellipsePerimeter;container=0;" vertex="1" parent="LVKkR7vcVI-ZxPXRzYf2-1">
          <mxGeometry x="4442.294713160855" y="2320.7985622221395" width="121.48481439820023" height="58.52754013025991" as="geometry" />
        </mxCell>
        <mxCell id="LVKkR7vcVI-ZxPXRzYf2-270" style="edgeStyle=none;curved=1;rounded=0;orthogonalLoop=1;jettySize=auto;html=1;exitX=0.5;exitY=0;exitDx=0;exitDy=0;fontSize=12;startSize=8;endSize=8;" edge="1" parent="LVKkR7vcVI-ZxPXRzYf2-1">
          <mxGeometry relative="1" as="geometry">
            <mxPoint x="4241.7513195465945" y="2175.380135590801" as="targetPoint" />
            <mxPoint x="4241.844769403824" y="2174.4797118964893" as="sourcePoint" />
          </mxGeometry>
        </mxCell>
        <mxCell id="LVKkR7vcVI-ZxPXRzYf2-271" value="Loaned_Amount" style="ellipse;whiteSpace=wrap;html=1;align=center;container=0;" vertex="1" parent="LVKkR7vcVI-ZxPXRzYf2-1">
          <mxGeometry x="4017.097862767154" y="1955.001436408015" width="121.48481439820023" height="58.52754013025991" as="geometry" />
        </mxCell>
        <mxCell id="LVKkR7vcVI-ZxPXRzYf2-272" value="Due_Amount" style="ellipse;whiteSpace=wrap;html=1;align=center;container=0;" vertex="1" parent="LVKkR7vcVI-ZxPXRzYf2-1">
          <mxGeometry x="4205.399325084365" y="2320.7985622221395" width="121.48481439820023" height="58.52754013025991" as="geometry" />
        </mxCell>
        <mxCell id="LVKkR7vcVI-ZxPXRzYf2-273" value="" style="endArrow=none;html=1;rounded=0;exitX=1;exitY=0;exitDx=0;exitDy=0;entryX=0.25;entryY=1;entryDx=0;entryDy=0;" edge="1" parent="LVKkR7vcVI-ZxPXRzYf2-1" source="LVKkR7vcVI-ZxPXRzYf2-272" target="LVKkR7vcVI-ZxPXRzYf2-284">
          <mxGeometry width="50" height="50" relative="1" as="geometry">
            <mxPoint x="4132.508436445444" y="2306.166677189575" as="sourcePoint" />
            <mxPoint x="4345.1068616422945" y="2233.0072520267495" as="targetPoint" />
          </mxGeometry>
        </mxCell>
        <mxCell id="LVKkR7vcVI-ZxPXRzYf2-274" value="" style="endArrow=none;html=1;rounded=0;entryX=1;entryY=1;entryDx=0;entryDy=0;exitX=0.25;exitY=0;exitDx=0;exitDy=0;" edge="1" parent="LVKkR7vcVI-ZxPXRzYf2-1" source="LVKkR7vcVI-ZxPXRzYf2-284" target="LVKkR7vcVI-ZxPXRzYf2-271">
          <mxGeometry width="50" height="50" relative="1" as="geometry">
            <mxPoint x="4375.478065241845" y="2174.4797118964893" as="sourcePoint" />
            <mxPoint x="4278.290213723284" y="2101.320286733665" as="targetPoint" />
          </mxGeometry>
        </mxCell>
        <mxCell id="LVKkR7vcVI-ZxPXRzYf2-275" value="Type" style="ellipse;whiteSpace=wrap;html=1;align=center;container=0;" vertex="1" parent="LVKkR7vcVI-ZxPXRzYf2-1">
          <mxGeometry x="4077.8402699662547" y="2308.5663063349148" width="121.48481439820023" height="58.52754013025991" as="geometry" />
        </mxCell>
        <mxCell id="LVKkR7vcVI-ZxPXRzYf2-276" value="Monthly_Income" style="ellipse;whiteSpace=wrap;html=1;align=center;container=0;" vertex="1" parent="LVKkR7vcVI-ZxPXRzYf2-1">
          <mxGeometry x="4326.884139482565" y="2393.957987384965" width="121.48481439820023" height="58.52754013025991" as="geometry" />
        </mxCell>
        <mxCell id="LVKkR7vcVI-ZxPXRzYf2-277" value="Loan_Purpose" style="ellipse;whiteSpace=wrap;html=1;align=center;container=0;" vertex="1" parent="LVKkR7vcVI-ZxPXRzYf2-1">
          <mxGeometry x="4387.626546681665" y="2028.16086157084" width="121.48481439820023" height="58.52754013025991" as="geometry" />
        </mxCell>
        <mxCell id="LVKkR7vcVI-ZxPXRzYf2-278" value="" style="endArrow=none;html=1;rounded=0;entryX=0.5;entryY=0;entryDx=0;entryDy=0;exitX=0.5;exitY=1;exitDx=0;exitDy=0;" edge="1" parent="LVKkR7vcVI-ZxPXRzYf2-1" source="LVKkR7vcVI-ZxPXRzYf2-284" target="LVKkR7vcVI-ZxPXRzYf2-276">
          <mxGeometry width="50" height="50" relative="1" as="geometry">
            <mxPoint x="4405.849268841394" y="2233.0072520267495" as="sourcePoint" />
            <mxPoint x="4290.438695163105" y="2159.8478268639246" as="targetPoint" />
          </mxGeometry>
        </mxCell>
        <mxCell id="LVKkR7vcVI-ZxPXRzYf2-279" value="" style="endArrow=none;html=1;rounded=0;entryX=0;entryY=1;entryDx=0;entryDy=0;exitX=0.75;exitY=0;exitDx=0;exitDy=0;" edge="1" parent="LVKkR7vcVI-ZxPXRzYf2-1" source="LVKkR7vcVI-ZxPXRzYf2-284" target="LVKkR7vcVI-ZxPXRzYf2-277">
          <mxGeometry width="50" height="50" relative="1" as="geometry">
            <mxPoint x="4436.220472440945" y="2174.4797118964893" as="sourcePoint" />
            <mxPoint x="4314.735658042745" y="2101.320286733665" as="targetPoint" />
          </mxGeometry>
        </mxCell>
        <mxCell id="LVKkR7vcVI-ZxPXRzYf2-280" value="" style="endArrow=none;html=1;rounded=0;exitX=1;exitY=0.5;exitDx=0;exitDy=0;entryX=0.25;entryY=1;entryDx=0;entryDy=0;" edge="1" parent="LVKkR7vcVI-ZxPXRzYf2-1" source="LVKkR7vcVI-ZxPXRzYf2-275" target="LVKkR7vcVI-ZxPXRzYf2-284">
          <mxGeometry width="50" height="50" relative="1" as="geometry">
            <mxPoint x="4071.7660292463434" y="2233.0072520267495" as="sourcePoint" />
            <mxPoint x="4314.735658042745" y="2233.0072520267495" as="targetPoint" />
          </mxGeometry>
        </mxCell>
        <mxCell id="LVKkR7vcVI-ZxPXRzYf2-281" value="&lt;u&gt;Loan_ID&lt;/u&gt;" style="ellipse;whiteSpace=wrap;html=1;align=center;container=0;" vertex="1" parent="LVKkR7vcVI-ZxPXRzYf2-1">
          <mxGeometry x="4235.770528683914" y="1940.36955137545" width="121.48481439820023" height="58.52754013025991" as="geometry" />
        </mxCell>
        <mxCell id="LVKkR7vcVI-ZxPXRzYf2-282" value="" style="endArrow=none;html=1;rounded=0;entryX=0.5;entryY=0;entryDx=0;entryDy=0;" edge="1" parent="LVKkR7vcVI-ZxPXRzYf2-1" source="LVKkR7vcVI-ZxPXRzYf2-284" target="LVKkR7vcVI-ZxPXRzYf2-269">
          <mxGeometry width="50" height="50" relative="1" as="geometry">
            <mxPoint x="4284.3644544431945" y="2174.4797118964893" as="sourcePoint" />
            <mxPoint x="4472.665916760405" y="2306.166677189575" as="targetPoint" />
          </mxGeometry>
        </mxCell>
        <mxCell id="LVKkR7vcVI-ZxPXRzYf2-283" value="" style="endArrow=none;html=1;rounded=0;entryX=0.5;entryY=0;entryDx=0;entryDy=0;" edge="1" parent="LVKkR7vcVI-ZxPXRzYf2-1" target="LVKkR7vcVI-ZxPXRzYf2-284">
          <mxGeometry width="50" height="50" relative="1" as="geometry">
            <mxPoint x="4284.3644544431945" y="2174.4797118964893" as="sourcePoint" />
            <mxPoint x="4381.552305961754" y="2379.3261023523996" as="targetPoint" />
          </mxGeometry>
        </mxCell>
        <mxCell id="LVKkR7vcVI-ZxPXRzYf2-284" value="Loan" style="whiteSpace=wrap;html=1;align=center;fontSize=16;container=0;" vertex="1" parent="LVKkR7vcVI-ZxPXRzYf2-1">
          <mxGeometry x="4223.622047244095" y="2145.2159418313595" width="121.48481439820023" height="58.52754013025991" as="geometry" />
        </mxCell>
        <mxCell id="LVKkR7vcVI-ZxPXRzYf2-285" value="" style="endArrow=none;html=1;rounded=0;entryX=0.5;entryY=1;entryDx=0;entryDy=0;exitX=0.75;exitY=0;exitDx=0;exitDy=0;" edge="1" parent="LVKkR7vcVI-ZxPXRzYf2-1" source="LVKkR7vcVI-ZxPXRzYf2-284" target="LVKkR7vcVI-ZxPXRzYf2-281">
          <mxGeometry width="50" height="50" relative="1" as="geometry">
            <mxPoint x="4405.849268841394" y="2159.8478268639246" as="sourcePoint" />
            <mxPoint x="4314.735658042745" y="2086.6884017011" as="targetPoint" />
          </mxGeometry>
        </mxCell>
        <mxCell id="LVKkR7vcVI-ZxPXRzYf2-286" value="Date_Issued" style="ellipse;whiteSpace=wrap;html=1;align=center;container=0;" vertex="1" parent="LVKkR7vcVI-ZxPXRzYf2-1">
          <mxGeometry x="4004.9493813273343" y="2042.792746603405" width="121.48481439820023" height="58.52754013025991" as="geometry" />
        </mxCell>
        <mxCell id="LVKkR7vcVI-ZxPXRzYf2-287" value="" style="endArrow=none;html=1;rounded=0;entryX=1;entryY=0.5;entryDx=0;entryDy=0;exitX=0;exitY=0.5;exitDx=0;exitDy=0;exitPerimeter=0;" edge="1" parent="LVKkR7vcVI-ZxPXRzYf2-1" source="LVKkR7vcVI-ZxPXRzYf2-284" target="LVKkR7vcVI-ZxPXRzYf2-286">
          <mxGeometry width="50" height="50" relative="1" as="geometry">
            <mxPoint x="2656.4679415073115" y="1384.3579201379807" as="sourcePoint" />
            <mxPoint x="2565.354330708661" y="1340.462265040286" as="targetPoint" />
          </mxGeometry>
        </mxCell>
        <mxCell id="LVKkR7vcVI-ZxPXRzYf2-288" value="" style="endArrow=none;html=1;rounded=0;exitX=0.5;exitY=1;exitDx=0;exitDy=0;entryX=0.5;entryY=0;entryDx=0;entryDy=0;" edge="1" parent="LVKkR7vcVI-ZxPXRzYf2-1" source="LVKkR7vcVI-ZxPXRzYf2-250" target="LVKkR7vcVI-ZxPXRzYf2-253">
          <mxGeometry width="50" height="50" relative="1" as="geometry">
            <mxPoint x="1307.9865016872889" y="2828.422549656915" as="sourcePoint" />
            <mxPoint x="1417.322834645669" y="2799.1587795917862" as="targetPoint" />
          </mxGeometry>
        </mxCell>
        <mxCell id="LVKkR7vcVI-ZxPXRzYf2-289" value="" style="shape=link;html=1;rounded=0;width=3.75;exitX=0;exitY=1;exitDx=0;exitDy=0;entryX=1;entryY=0;entryDx=0;entryDy=0;" edge="1" parent="LVKkR7vcVI-ZxPXRzYf2-1" source="LVKkR7vcVI-ZxPXRzYf2-253" target="LVKkR7vcVI-ZxPXRzYf2-258">
          <mxGeometry relative="1" as="geometry">
            <mxPoint x="2674.6906636670415" y="1422.1959748321942" as="sourcePoint" />
            <mxPoint x="2674.301912260968" y="1480.7235149624537" as="targetPoint" />
            <Array as="points" />
          </mxGeometry>
        </mxCell>
      </root>
    </mxGraphModel>
  </diagram>
</mxfile>
